# This file uses centimeters as units for non-parametric coordinates.

mtllib testnodes1.mtl
g default
v -2.275201 1.216035 11.376008
v 0.000000 1.216035 11.376008
v 2.275202 1.216035 11.376008
v -6.825605 1.216035 9.100806
v -4.550403 1.216035 9.100806
v -2.785781 1.216035 9.633233
v 0.000000 0.770798 9.252896
v 2.981288 1.216035 9.416326
v 4.550403 1.216035 9.100806
v 6.825605 1.216035 9.100806
v -8.685448 1.216035 6.284653
v -6.825605 1.216035 6.825605
v -4.626448 0.770798 6.939672
v -2.342429 0.770798 7.241918
v 0.422039 0.770798 7.342092
v 2.313224 0.770798 6.939672
v 4.626448 0.770798 6.939672
v 6.825605 1.216035 6.825605
v 9.100807 1.216035 6.825605
v -9.100806 1.216035 4.550403
v -6.939672 0.770798 4.626448
v -4.626448 0.770798 4.626448
v -2.313224 0.974341 4.626448
v 0.000000 0.974341 4.626448
v 2.313224 0.974341 4.626448
v 4.626448 0.974341 4.626448
v 6.939672 0.770798 4.626448
v 9.100807 1.216035 4.550403
v -10.771630 1.216035 2.172678
v -9.350677 1.216035 2.963861
v -7.533640 0.770798 2.381678
v -5.059147 0.974341 2.467415
v -1.996532 0.974341 1.972741
v 0.019950 0.974341 2.451666
v 1.951317 0.974341 1.873338
v 4.626448 0.974341 2.313224
v 7.440619 0.770798 2.370577
v 9.625049 1.216035 2.882016
v 11.014657 1.216035 2.409577
v -10.815757 1.216035 0.051547
v -9.252896 0.770798 0.000000
v -7.290253 0.770798 0.412580
v -4.626448 0.974341 0.000000
v -2.638225 0.974341 -0.010944
v 2.630006 0.974341 0.079243
v 4.626448 0.974341 0.000000
v 6.939672 0.770798 0.000000
v 9.252897 0.770798 0.000000
v 11.014657 1.216035 0.134376
v -10.815757 1.216035 -2.223655
v -9.529734 1.216035 -3.009922
v -7.276438 0.770798 -2.324905
v -4.626448 0.974341 -2.313224
v -2.024971 0.974341 -1.904390
v -0.007799 0.974341 -2.742452
v 1.939959 0.974341 -1.903530
v 4.626448 0.974341 -2.313224
v 7.452977 0.770798 -2.464326
v 9.772905 1.216035 -3.069261
v 10.956425 1.216035 -2.143712
v -9.100806 1.216035 -4.550403
v -6.939672 0.770798 -4.626448
v -4.626448 0.770798 -4.626448
v -2.313224 0.974341 -4.626448
v 0.000000 0.974341 -4.626448
v 2.313224 0.974341 -4.626448
v 4.626448 0.770798 -4.626448
v 6.939672 0.770798 -4.626448
v 9.100807 1.216035 -4.550403
v -8.929557 1.216035 -6.270489
v -7.669162 1.216035 -7.585981
v -4.890259 0.770798 -7.264921
v -2.313224 0.770798 -6.939672
v -0.269717 0.770798 -7.221875
v 2.476426 0.770798 -7.401338
v 4.626448 0.770798 -6.939672
v 6.825605 1.216035 -6.825605
v 8.239647 1.216035 -6.777220
v -6.698252 1.216035 -8.905255
v -4.933724 1.216035 -9.734799
v -3.186811 1.216035 -8.976578
v 0.000000 0.770798 -9.252897
v 2.574821 1.216035 -9.514642
v 4.854431 1.216035 -9.200996
v 6.402440 1.216035 -8.598818
v -2.736604 1.216035 -10.330034
v -0.266200 1.216035 -10.800054
v 1.712728 1.216035 -10.895599
vt 0.400000 0.000000
vt 0.500000 0.000000
vt 0.600000 0.000000
vt 0.200000 0.100000
vt 0.300000 0.100000
vt 0.400000 0.100000
vt 0.500000 0.100000
vt 0.600000 0.100000
vt 0.700000 0.100000
vt 0.800000 0.100000
vt 0.100000 0.200000
vt 0.200000 0.200000
vt 0.300000 0.200000
vt 0.400000 0.200000
vt 0.500000 0.200000
vt 0.600000 0.200000
vt 0.700000 0.200000
vt 0.800000 0.200000
vt 0.900000 0.200000
vt 0.100000 0.300000
vt 0.200000 0.300000
vt 0.300000 0.300000
vt 0.400000 0.300000
vt 0.500000 0.300000
vt 0.600000 0.300000
vt 0.700000 0.300000
vt 0.800000 0.300000
vt 0.900000 0.300000
vt 0.000000 0.400000
vt 0.100000 0.400000
vt 0.200000 0.400000
vt 0.300000 0.400000
vt 0.400000 0.400000
vt 0.500000 0.400000
vt 0.600000 0.400000
vt 0.700000 0.400000
vt 0.800000 0.400000
vt 0.900000 0.400000
vt 1.000000 0.400000
vt 0.000000 0.500000
vt 0.100000 0.500000
vt 0.200000 0.500000
vt 0.300000 0.500000
vt 0.400000 0.500000
vt 0.600000 0.500000
vt 0.700000 0.500000
vt 0.800000 0.500000
vt 0.900000 0.500000
vt 1.000000 0.500000
vt 0.000000 0.600000
vt 0.100000 0.600000
vt 0.200000 0.600000
vt 0.300000 0.600000
vt 0.400000 0.600000
vt 0.500000 0.600000
vt 0.600000 0.600000
vt 0.700000 0.600000
vt 0.800000 0.600000
vt 0.900000 0.600000
vt 1.000000 0.600000
vt 0.100000 0.700000
vt 0.200000 0.700000
vt 0.300000 0.700000
vt 0.400000 0.700000
vt 0.500000 0.700000
vt 0.600000 0.700000
vt 0.700000 0.700000
vt 0.800000 0.700000
vt 0.900000 0.700000
vt 0.100000 0.800000
vt 0.200000 0.800000
vt 0.300000 0.800000
vt 0.400000 0.800000
vt 0.500000 0.800000
vt 0.600000 0.800000
vt 0.700000 0.800000
vt 0.800000 0.800000
vt 0.900000 0.800000
vt 0.200000 0.900000
vt 0.300000 0.900000
vt 0.400000 0.900000
vt 0.500000 0.900000
vt 0.600000 0.900000
vt 0.700000 0.900000
vt 0.800000 0.900000
vt 0.400000 1.000000
vt 0.500000 1.000000
vt 0.600000 1.000000
vn 0.077692 0.989212 -0.124189
vn -0.004637 0.992360 -0.123287
vn 0.000887 0.994439 -0.105305
vn 0.064284 0.989043 -0.132900
vn -0.080014 0.989333 -0.121727
vn -0.061769 0.988681 -0.136726
vn 0.101063 0.989733 -0.101063
vn 0.067616 0.986577 -0.148638
vn 0.043878 0.996063 -0.077033
vn 0.107190 0.988443 -0.107190
vn 0.017858 0.999379 -0.030388
vn -0.009874 0.999893 -0.010774
vn -0.026266 0.999551 -0.014384
vn -0.056528 0.987694 -0.145823
vn -0.043230 0.997342 -0.058661
vn -0.101063 0.989733 -0.101063
vn -0.084758 0.992790 -0.084758
vn 0.128617 0.983319 -0.128617
vn 0.079243 0.995828 -0.045249
vn 0.177443 0.980756 -0.081438
vn -0.008716 0.999880 0.012791
vn -0.020996 0.998842 0.043284
vn 0.001130 0.999124 0.041830
vn 0.001833 0.999189 0.040234
vn 0.008282 0.999907 0.010801
vn -0.048799 0.997782 -0.045267
vn -0.101063 0.989734 -0.101063
vn -0.150871 0.985708 -0.074948
vn 0.045876 0.998623 -0.025443
vn 0.167828 0.983465 -0.068051
vn -0.042145 0.998838 0.023358
vn -0.011799 0.999818 0.015007
vn 0.000000 1.000000 0.000000
vn -0.000000 1.000000 0.000000
vn 0.040657 0.999173 -0.000057
vn -0.032972 0.998891 -0.033607
vn -0.143732 0.987508 -0.064562
vn 0.167454 0.982274 -0.084240
vn 0.125824 0.992021 0.007886
vn 0.171755 0.985120 -0.006250
vn 0.000727 0.999990 -0.004480
vn -0.040057 0.999194 -0.002436
vn -0.000000 1.000000 0.000000
vn 0.043539 0.999052 0.000057
vn 0.000000 1.000000 0.000000
vn 0.006393 0.999980 -0.000013
vn -0.114657 0.993405 -0.000071
vn -0.147338 0.986275 -0.074516
vn -0.159668 0.987139 -0.007905
vn 0.148041 0.987163 0.059939
vn 0.175068 0.981806 0.073540
vn 0.028707 0.999415 0.018612
vn -0.042640 0.998840 -0.022359
vn -0.014374 0.999793 -0.014374
vn 0.041589 0.998923 -0.020562
vn 0.013978 0.999804 -0.013978
vn -0.040257 0.998873 0.025134
vn -0.143487 0.987602 0.063671
vn -0.172637 0.982710 0.066915
vn 0.080200 0.996331 0.029873
vn 0.178126 0.982534 0.053836
vn -0.006783 0.999891 -0.013147
vn -0.022681 0.998903 -0.040974
vn -0.000000 1.000000 0.000000
vn -0.002075 0.999066 -0.043163
vn 0.021246 0.998898 -0.041843
vn 0.009734 0.999903 -0.009910
vn -0.075128 0.996050 0.047334
vn -0.166571 0.982434 0.084128
vn 0.109531 0.990121 0.087537
vn 0.158519 0.984521 0.074761
vn 0.028676 0.995821 0.086712
vn 0.007088 0.999701 0.023413
vn 0.008561 0.999942 0.006479
vn -0.017317 0.998869 0.044287
vn -0.042841 0.995805 0.080850
vn -0.118364 0.986597 0.112323
vn -0.126930 0.983757 0.126930
vn 0.026676 0.984119 0.175493
vn 0.112370 0.983316 0.143047
vn 0.023770 0.986498 0.162040
vn 0.003132 0.991960 0.126516
vn -0.060531 0.986124 0.154580
vn -0.074493 0.983298 0.166058
vn -0.138900 0.983576 0.115263
vn 0.018723 0.985591 0.168107
vn 0.098062 0.982708 0.157064
vn -0.081672 0.980176 0.180512
s 1
g pPlane6
usemtl initialShadingGroup
f 1/1/1 2/2/2 7/7/3 6/6/4
f 2/2/2 3/3/5 8/8/6 7/7/3
f 4/4/7 5/5/8 13/13/9 12/12/10
f 5/5/8 6/6/4 14/14/11 13/13/9
f 6/6/4 7/7/3 15/15/12 14/14/11
f 7/7/3 8/8/6 16/16/13 15/15/12
f 8/8/6 9/9/14 17/17/15 16/16/13
f 9/9/14 10/10/16 18/18/17 17/17/15
f 11/11/18 12/12/10 21/21/19 20/20/20
f 12/12/10 13/13/9 22/22/21 21/21/19
f 13/13/9 14/14/11 23/23/22 22/22/21
f 14/14/11 15/15/12 24/24/23 23/23/22
f 15/15/12 16/16/13 25/25/24 24/24/23
f 16/16/13 17/17/15 26/26/25 25/25/24
f 17/17/15 18/18/17 27/27/26 26/26/25
f 18/18/17 19/19/27 28/28/28 27/27/26
f 20/20/20 21/21/19 31/31/29 30/30/30
f 21/21/19 22/22/21 32/32/31 31/31/29
f 22/22/21 23/23/22 33/33/32 32/32/31
f 23/23/22 24/24/23 34/34/33 33/33/32
f 24/24/23 25/25/24 35/35/34 34/34/33
f 25/25/24 26/26/25 36/36/35 35/35/34
f 26/26/25 27/27/26 37/37/36 36/36/35
f 27/27/26 28/28/28 38/38/37 37/37/36
f 29/29/38 30/30/30 41/41/39 40/40/40
f 30/30/30 31/31/29 42/42/41 41/41/39
f 31/31/29 32/32/31 43/43/42 42/42/41
f 32/32/31 33/33/32 44/44/43 43/43/42
f 35/35/34 36/36/35 46/46/44 45/45/45
f 36/36/35 37/37/36 47/47/46 46/46/44
f 37/37/36 38/38/37 48/48/47 47/47/46
f 38/38/37 39/39/48 49/49/49 48/48/47
f 40/40/40 41/41/39 51/51/50 50/50/51
f 41/41/39 42/42/41 52/52/52 51/51/50
f 42/42/41 43/43/42 53/53/53 52/52/52
f 43/43/42 44/44/43 54/54/54 53/53/53
f 45/45/45 46/46/44 57/57/55 56/56/56
f 46/46/44 47/47/46 58/58/57 57/57/55
f 47/47/46 48/48/47 59/59/58 58/58/57
f 48/48/47 49/49/49 60/60/59 59/59/58
f 51/51/50 52/52/52 62/62/60 61/61/61
f 52/52/52 53/53/53 63/63/62 62/62/60
f 53/53/53 54/54/54 64/64/63 63/63/62
f 54/54/54 55/55/64 65/65/65 64/64/63
f 55/55/64 56/56/56 66/66/66 65/65/65
f 56/56/56 57/57/55 67/67/67 66/66/66
f 57/57/55 58/58/57 68/68/68 67/67/67
f 58/58/57 59/59/58 69/69/69 68/68/68
f 61/61/61 62/62/60 71/71/70 70/70/71
f 62/62/60 63/63/62 72/72/72 71/71/70
f 63/63/62 64/64/63 73/73/73 72/72/72
f 64/64/63 65/65/65 74/74/74 73/73/73
f 65/65/65 66/66/66 75/75/75 74/74/74
f 66/66/66 67/67/67 76/76/76 75/75/75
f 67/67/67 68/68/68 77/77/77 76/76/76
f 68/68/68 69/69/69 78/78/78 77/77/77
f 71/71/70 72/72/72 80/80/79 79/79/80
f 72/72/72 73/73/73 81/81/81 80/80/79
f 73/73/73 74/74/74 82/82/82 81/81/81
f 74/74/74 75/75/75 83/83/83 82/82/82
f 75/75/75 76/76/76 84/84/84 83/83/83
f 76/76/76 77/77/77 85/85/85 84/84/84
f 81/81/81 82/82/82 87/87/86 86/86/87
f 82/82/82 83/83/83 88/88/88 87/87/86
