# This file uses centimeters as units for non-parametric coordinates.

mtllib testnodes.mtl
g default
v -9.588215 0.549369 9.828320
v -7.712653 0.549369 9.828320
v -7.502248 0.549369 7.502248
v -9.377810 0.549369 7.502248
v -5.837091 0.549369 9.828320
v -5.959475 0.549369 7.502248
v -7.502248 0.549369 5.626687
v -9.377810 0.549369 5.626687
v -3.961528 0.549369 9.828320
v -4.179343 0.549369 7.502248
v -5.959475 0.549369 5.626687
v -7.502248 0.549369 3.751124
v -9.377810 0.549369 3.751124
v -2.577689 1.019683 8.764463
v -4.179343 0.549369 5.626687
v -5.626687 0.549369 3.751124
v -7.502248 0.549369 1.875562
v -9.377810 0.549369 1.875562
v -2.700663 0.549369 9.758684
v -3.751124 0.549369 3.908356
v -5.626687 0.549369 2.292815
v -7.502248 0.549369 0.000000
v -9.377810 0.549369 0.000000
v -3.751124 0.549369 2.490556
v -5.626687 0.549369 0.000000
v -7.502248 0.549369 -1.875563
v -9.377810 0.549369 -1.875563
v -1.875562 0.549369 4.101829
v -1.875562 0.549369 2.584376
v -5.483809 0.549369 -2.060330
v -7.502248 0.549369 -3.751124
v -9.377810 0.549369 -3.751124
v 0.000000 0.549369 4.101829
v 0.000000 0.549369 2.584376
v -5.626687 0.549369 -4.069816
v -7.831527 0.549369 -5.626687
v -9.377810 0.549369 -5.626687
v 1.875563 0.549369 4.101829
v 1.875563 0.549369 2.584376
v -3.751124 0.549369 -2.449486
v -3.751124 0.549369 -3.900626
v -6.315086 0.549369 -5.626687
v -7.831527 0.549369 -7.502249
v -9.377810 0.549369 -7.502249
v 3.751124 0.549369 4.045860
v 3.751124 0.549369 2.528407
v -1.875562 0.549369 -2.449486
v -1.875562 0.549369 -3.900626
v -4.838988 0.452645 -5.626687
v -6.315086 0.549369 -7.502249
v -7.502248 0.549369 -9.875423
v -9.377810 0.549369 -9.377810
v 5.626687 0.549369 3.751124
v 5.626687 0.549369 2.292815
v 0.000000 0.549369 -2.449486
v 0.000000 0.549369 -3.900626
v -4.838988 0.452645 -8.025673
v -5.626687 0.549369 -9.875423
v 4.241924 0.549369 5.492991
v 5.626687 0.549369 5.626687
v 7.502249 0.549369 3.751124
v 7.502249 0.549369 1.875562
v 1.875563 0.549369 -2.449486
v 1.875563 0.549369 -3.900626
v 5.626687 0.549369 7.502248
v 7.502249 0.549369 5.626687
v 9.377810 0.549369 3.751124
v 9.377810 0.549369 1.875562
v 7.502249 0.549369 0.000000
v 5.626687 0.549369 0.000000
v 3.751124 0.549369 -2.195277
v 3.751124 0.549369 -3.668435
v -3.751124 0.549369 -9.875423
v 4.179445 0.668541 7.531878
v 7.502249 0.549369 7.502248
v 9.377810 0.549369 5.626687
v 9.377810 0.549369 0.000000
v 7.502249 0.549369 -1.859704
v 5.626687 0.549369 -1.859704
v 5.626687 0.549369 -3.735266
v -2.450561 0.867584 -9.826110
v 5.626687 0.549369 9.377810
v 7.502249 0.549369 9.377810
v 9.377810 0.549369 7.502248
v 9.377810 0.549369 -1.875563
v 7.502249 0.549369 -3.735266
v 5.626687 0.549369 -5.626687
v 4.229660 0.549369 -5.626687
v -2.009441 1.168041 -8.836044
v 3.751124 0.883106 9.704512
v 9.377810 0.549369 9.377810
v 9.377810 0.549369 -3.751124
v 7.502249 0.549369 -5.626687
v 5.626687 0.549369 -7.502249
v 4.229660 0.549369 -7.502249
v 2.779086 1.077759 8.686290
v 9.377810 0.549369 -5.626687
v 7.502249 0.549369 -7.502249
v 5.626687 0.549369 -9.377810
v 3.751124 0.549369 -9.377810
v 2.935389 0.883106 9.776215
v 9.377810 0.549369 -7.502249
v 7.502249 0.549369 -9.377810
v 2.945252 0.819440 -8.445349
v 9.377810 0.549369 -9.377810
v 3.018091 0.549369 -9.690114
v -0.217535 5.188125 0.000000
v 0.204570 5.188125 0.000000
v 0.626675 5.188125 0.000000
v 0.626675 5.142550 -1.875334
v -0.217535 5.142550 -1.875334
v -0.216501 5.109625 1.879167
v 0.205604 5.109624 1.879303
v 0.627284 4.500551 -3.775581
v -0.216926 4.500551 -3.775581
v 0.627709 5.109625 1.879439
v 0.627284 4.500551 -3.775581
v -0.216926 4.500551 -3.775581
v -0.215468 4.604750 3.758335
v 0.206638 4.604750 3.758607
v -0.216926 3.507483 -5.892162
v -0.216926 3.507483 -5.892162
v 0.627284 3.507483 -5.892162
v 0.627284 3.507483 -5.892162
v 0.628743 4.604750 3.758879
v -0.215468 4.604750 3.758335
v 0.628743 4.604750 3.758879
v 0.626675 2.289627 -8.024299
v -0.217535 2.289627 -8.024299
v 0.627378 3.566108 5.875459
v 0.627378 3.566108 5.875459
v -0.216832 3.611682 5.874915
v -0.216832 3.611682 5.874915
v -1.061746 2.219976 -7.688525
v 1.470886 2.117357 -7.719206
v 0.626675 1.103213 -10.287703
v -0.217535 1.103213 -10.287703
v -1.061746 1.765877 -8.412370
v 1.470886 1.660240 -8.412370
v -0.217597 2.348252 8.007051
v -1.061746 1.103213 -10.287703
v 1.470886 1.103213 -10.287703
v -1.061610 2.175983 7.701415
v 0.626613 2.348252 8.007595
v -1.374739 1.515624 -8.739747
v 2.151551 1.048879 -8.927506
v -1.062057 1.718865 8.394578
v 1.471040 2.278601 7.672366
v -0.219055 1.161839 10.270454
v 0.625155 1.161839 10.271000
v -1.691456 0.977353 -10.020628
v 2.144520 0.707239 -10.045078
v 1.470573 1.824502 8.396211
v -1.063266 1.161839 10.269911
v 1.469364 1.007515 10.271544
v -1.316718 1.586969 8.563429
v 1.783355 1.574249 8.723789
v -1.814184 0.995279 9.839558
v 2.099247 0.881654 10.004873
vt 0.000000 0.000000
vt 0.100000 0.000000
vt 0.100000 0.100000
vt 0.000000 0.100000
vt 0.200000 0.000000
vt 0.200000 0.100000
vt 0.100000 0.200000
vt 0.000000 0.200000
vt 0.300000 0.000000
vt 0.300000 0.100000
vt 0.200000 0.200000
vt 0.100000 0.300000
vt 0.000000 0.300000
vt 0.000000 0.000000
vt 1.000000 0.000000
vt 0.000000 1.000000
vt 0.300000 0.200000
vt 0.200000 0.300000
vt 0.100000 0.400000
vt 0.000000 0.400000
vt 1.000000 1.000000
vt 0.300000 0.300000
vt 0.200000 0.400000
vt 0.100000 0.500000
vt 0.000000 0.500000
vt 0.300000 0.400000
vt 0.200000 0.500000
vt 0.100000 0.600000
vt 0.000000 0.600000
vt 0.400000 0.300000
vt 0.400000 0.400000
vt 0.200000 0.600000
vt 0.100000 0.700000
vt 0.000000 0.700000
vt 0.500000 0.300000
vt 0.500000 0.400000
vt 0.200000 0.700000
vt 0.100000 0.800000
vt 0.000000 0.800000
vt 0.600000 0.300000
vt 0.600000 0.400000
vt 0.300000 0.600000
vt 0.300000 0.700000
vt 0.200000 0.800000
vt 0.100000 0.900000
vt 0.000000 0.900000
vt 0.700000 0.300000
vt 0.700000 0.400000
vt 0.400000 0.600000
vt 0.400000 0.700000
vt 0.300000 0.800000
vt 0.200000 0.900000
vt 0.100000 1.000000
vt 0.000000 1.000000
vt 0.800000 0.300000
vt 0.800000 0.400000
vt 0.500000 0.600000
vt 0.500000 0.700000
vt 0.300000 0.900000
vt 0.200000 1.000000
vt 0.700000 0.200000
vt 0.800000 0.200000
vt 0.900000 0.300000
vt 0.900000 0.400000
vt 0.600000 0.600000
vt 0.600000 0.700000
vt 0.800000 0.100000
vt 0.900000 0.200000
vt 1.000000 0.300000
vt 1.000000 0.400000
vt 0.900000 0.500000
vt 0.800000 0.500000
vt 0.700000 0.600000
vt 0.700000 0.700000
vt 0.300000 1.000000
vt 0.700000 0.100000
vt 0.900000 0.100000
vt 1.000000 0.200000
vt 1.000000 0.500000
vt 0.900000 0.600000
vt 0.800000 0.600000
vt 0.800000 0.700000
vt 0.000000 0.000000
vt 1.000000 0.000000
vt 0.000000 1.000000
vt 0.800000 0.000000
vt 0.900000 0.000000
vt 1.000000 0.100000
vt 1.000000 0.600000
vt 0.900000 0.700000
vt 0.800000 0.800000
vt 0.700000 0.800000
vt 1.000000 1.000000
vt 0.700000 0.000000
vt 1.000000 0.000000
vt 1.000000 0.700000
vt 0.900000 0.800000
vt 0.800000 0.900000
vt 0.700000 0.900000
vt 1.000000 0.000000
vt 1.000000 1.000000
vt 0.000000 0.000000
vt 1.000000 0.800000
vt 0.900000 0.900000
vt 0.800000 1.000000
vt 0.700000 1.000000
vt 0.000000 1.000000
vt 1.000000 0.900000
vt 0.900000 1.000000
vt 0.000000 0.000000
vt 1.000000 0.000000
vt 0.000000 1.000000
vt 1.000000 1.000000
vt 1.000000 1.000000
vt 0.500000 0.500000
vt 0.550000 0.500000
vt 0.600000 0.500000
vt 0.600000 0.600000
vt 0.500000 0.600000
vt 0.550000 0.600000
vt 0.550000 0.600000
vt 0.600000 0.700000
vt 0.500000 0.700000
vt 0.550000 0.600000
vt 0.500000 0.700000
vt 0.500000 0.700000
vt 0.500000 0.700000
vt 0.600000 0.700000
vt 0.550000 0.700000
vt 0.500000 0.800000
vt 0.500000 0.800000
vt 0.600000 0.800000
vt 0.600000 0.800000
vt 0.600000 0.700000
vt 0.500000 0.700000
vt 0.600000 0.800000
vt 0.600000 0.800000
vt 0.600000 0.700000
vt 0.500000 0.700000
vt 0.600000 0.900000
vt 0.500000 0.900000
vt 0.500000 0.800000
vt 0.500000 0.800000
vt 0.600000 0.800000
vt 0.600000 0.800000
vt 0.400000 0.800000
vt 0.700000 0.800000
vt 0.600000 1.000000
vt 0.500000 1.000000
vt 0.400000 0.900000
vt 0.700000 0.900000
vt 0.600000 0.900000
vt 0.400000 1.000000
vt 0.700000 1.000000
vt 0.700000 0.800000
vt 0.500000 0.900000
vt 0.300000 0.900000
vt 0.800000 0.900000
vt 0.700000 0.900000
vt 0.400000 0.800000
vt 0.600000 1.000000
vt 0.500000 1.000000
vt 0.300000 1.000000
vt 0.800000 1.000000
vt 0.400000 0.900000
vt 0.700000 1.000000
vt 0.400000 1.000000
vt 0.800000 0.900000
vt 0.300000 0.900000
vt 0.800000 1.000000
vt 0.300000 1.000000
vn 0.000000 1.000000 -0.000000
vn 0.000000 1.000000 0.000000
vn 0.000000 1.000000 0.000000
vn 0.000000 1.000000 -0.000000
vn 0.000000 1.000000 0.000000
vn 0.000000 1.000000 0.000000
vn 0.000000 1.000000 0.000000
vn 0.000000 1.000000 0.000000
vn -0.084440 0.994891 0.055335
vn -0.030975 0.999314 0.020299
vn 0.000000 1.000000 0.000000
vn 0.000000 1.000000 0.000000
vn 0.000000 1.000000 0.000000
vn -0.218179 0.965379 0.142976
vn -0.218179 0.965379 0.142976
vn 0.000000 1.000000 0.000000
vn 0.000000 1.000000 0.000000
vn 0.000000 1.000000 0.000000
vn 0.000000 1.000000 0.000000
vn 0.000000 1.000000 0.000000
vn 0.000000 1.000000 0.000000
vn 0.000000 1.000000 0.000000
vn 0.000000 1.000000 0.000000
vn 0.000000 1.000000 0.000000
vn 0.000000 1.000000 0.000000
vn 0.000000 1.000000 0.000000
vn 0.000000 1.000000 0.000000
vn 0.000000 1.000000 0.000000
vn 0.000000 1.000000 0.000000
vn 0.000000 1.000000 0.000000
vn 0.000000 1.000000 0.000000
vn 0.000000 1.000000 0.000000
vn 0.000000 1.000000 0.000000
vn 0.000000 1.000000 0.000000
vn 0.008878 0.999874 -0.013188
vn 0.000000 1.000000 0.000000
vn 0.000000 1.000000 0.000000
vn 0.000000 1.000000 0.000000
vn 0.000000 1.000000 0.000000
vn 0.000000 1.000000 0.000000
vn 0.006431 0.999934 -0.009553
vn 0.022809 0.999710 -0.007759
vn 0.000000 1.000000 0.000000
vn 0.000000 1.000000 0.000000
vn 0.000000 1.000000 0.000000
vn 0.000000 1.000000 0.000000
vn 0.000000 1.000000 0.000000
vn 0.000000 1.000000 0.000000
vn 0.047108 0.998583 -0.024740
vn 0.023886 0.999699 0.005578
vn 0.000000 1.000000 0.000000
vn 0.000000 1.000000 0.000000
vn 0.000000 1.000000 0.000000
vn 0.000000 1.000000 0.000000
vn 0.000000 1.000000 0.000000
vn 0.000000 1.000000 0.000000
vn -0.004618 0.999989 0.000657
vn 0.018794 0.999617 0.020305
vn 0.018741 0.999741 -0.012916
vn 0.010132 0.999924 -0.006983
vn 0.000000 1.000000 0.000000
vn 0.000000 1.000000 0.000000
vn 0.000000 1.000000 0.000000
vn 0.000000 1.000000 0.000000
vn -0.157250 0.985125 -0.069292
vn 0.042226 0.998978 -0.016107
vn 0.104621 0.994050 -0.030308
vn 0.000000 1.000000 0.000000
vn 0.000000 1.000000 0.000000
vn 0.000000 1.000000 0.000000
vn 0.000000 1.000000 0.000000
vn 0.000000 1.000000 0.000000
vn 0.000000 1.000000 0.000000
vn 0.000000 1.000000 -0.000000
vn 0.000000 1.000000 0.000000
vn 0.000000 1.000000 0.000000
vn 0.000000 1.000000 0.000000
vn 0.000000 1.000000 0.000000
vn 0.000000 1.000000 0.000000
vn 0.000000 1.000000 -0.000000
vn -0.262980 0.956207 -0.128491
vn -0.262980 0.956207 -0.128491
vn 0.067419 0.997526 -0.019913
vn 0.155992 0.987611 -0.017065
vn 0.000000 1.000000 0.000000
vn 0.000000 1.000000 0.000000
vn 0.000000 1.000000 0.000000
vn 0.000000 1.000000 0.000000
vn 0.000000 1.000000 -0.000000
vn 0.000000 1.000000 -0.000000
vn 0.000000 1.000000 0.000000
vn 0.000000 1.000000 0.000000
vn 0.000000 1.000000 0.000000
vn 0.000000 1.000000 0.000000
vn 0.019409 0.999754 -0.010748
vn 0.186697 0.982371 0.009570
vn 0.186697 0.982371 0.009570
vn 0.000000 1.000000 0.000000
vn 0.000000 1.000000 0.000000
vn 0.000000 1.000000 0.000000
vn 0.089875 0.994709 -0.049770
vn 0.000000 1.000000 0.000000
vn 0.000000 1.000000 0.000000
vn 0.198903 0.973810 -0.110146
vn 0.198903 0.973810 -0.110146
vn 0.000000 1.000000 0.000000
vn 0.000000 0.999705 -0.024295
vn 0.000000 0.999705 -0.024295
vn 0.000000 0.999705 -0.024295
vn 0.000000 0.983817 -0.179178
vn 0.000000 0.983822 -0.179150
vn -0.000007 0.999129 0.041734
vn -0.000007 0.999129 0.041734
vn -0.000007 0.999129 0.041734
vn -0.000068 0.988177 0.153314
vn -0.000068 0.988168 0.153374
vn -0.000068 0.988159 0.153434
vn 0.000000 0.947392 -0.320077
vn 0.000000 0.947392 -0.320077
vn 0.000000 0.000000 0.000000
vn 0.000000 0.000000 0.000000
vn -0.000126 0.965756 0.259451
vn -0.000126 0.965756 0.259451
vn -0.000126 0.965756 0.259451
vn 0.000000 0.000000 0.000000
vn 0.000000 0.000000 0.000000
vn 0.000000 0.000000 0.000000
vn 0.000000 0.000000 0.000000
vn 0.000000 0.000000 0.000000
vn 0.000000 0.000000 0.000000
vn 0.000000 0.000000 0.000000
vn 0.000000 0.000000 0.000000
vn 0.000000 0.905308 -0.424757
vn 0.000000 0.905308 -0.424757
vn 0.000000 0.905308 -0.424757
vn 0.000000 0.905308 -0.424757
vn 0.049507 0.866157 -0.497314
vn -0.037982 0.866970 -0.496911
vn 0.000000 0.000000 0.000000
vn 0.000000 0.000000 0.000000
vn 0.000000 -0.000000 -0.000000
vn 0.000271 -0.104947 -0.994478
vn 0.000000 -0.000000 -0.000000
vn 0.000000 -0.000000 -0.000000
vn 0.000000 -0.000000 -0.000000
vn 0.134238 0.872737 -0.469373
vn -0.101728 0.875409 -0.472558
vn 0.000000 0.000000 0.000000
vn 0.000000 0.000000 0.000000
vn 0.000000 0.000000 0.000000
vn 0.000000 0.000000 0.000000
vn 0.000000 0.000000 0.000000
vn 0.000000 0.000000 0.000000
vn 0.000000 0.000000 0.000000
vn 0.000000 0.000000 0.000000
vn 0.024049 0.901273 0.432583
vn 0.024049 0.901274 0.432583
vn 0.024049 0.901273 0.432583
vn 0.024049 0.901273 0.432583
vn -0.262579 0.832735 -0.487446
vn -0.218872 0.884218 -0.412619
vn 0.338589 0.809355 -0.479898
vn 0.319928 0.868451 -0.378734
vn 0.118211 0.896939 -0.426060
vn -0.088746 0.895433 -0.436260
vn -0.030561 0.862528 0.505086
vn 0.057025 0.862727 0.502444
vn 0.000000 0.000000 0.000000
vn 0.000000 0.000000 0.000000
vn -0.225074 0.898220 -0.377548
vn 0.362630 0.871127 -0.331115
vn -0.129156 0.870744 0.474471
vn 0.119592 0.870219 0.477929
vn -0.340922 0.802989 0.488857
vn -0.280764 0.877613 0.388546
vn -0.335962 0.891017 -0.305318
vn -0.335962 0.891017 -0.305318
vn 0.547292 0.801232 -0.241868
vn 0.547292 0.801231 -0.241868
vn 0.262265 0.832735 0.487615
vn 0.261363 0.862620 0.433101
vn -0.118486 0.896939 0.425984
vn 0.125860 0.885684 0.446905
vn -0.270547 0.896496 0.350855
vn 0.271042 0.870203 0.411440
vn -0.338513 0.900033 0.274500
vn -0.338513 0.900033 0.274500
vn 0.320999 0.866453 0.382386
vn 0.320999 0.866453 0.382386
s 1
g pPlane6
usemtl initialShadingGroup
f 1/1/1 2/2/2 3/3/3 4/4/4
f 2/2/2 5/5/5 6/6/6 3/3/3
f 4/4/4 3/3/3 7/7/7 8/8/8
f 5/5/5 9/9/9 10/10/10 6/6/6
f 3/3/3 6/6/6 11/11/11 7/7/7
f 8/8/8 7/7/7 12/12/12 13/13/13
f 14/16/14 10/14/10 9/15/9 19/21/15
f 6/6/6 10/10/10 15/17/16 11/11/11
f 7/7/7 11/11/11 16/18/17 12/12/12
f 13/13/13 12/12/12 17/19/18 18/20/19
f 11/11/11 15/17/16 20/22/20 16/18/17
f 12/12/12 16/18/17 21/23/21 17/19/18
f 18/20/19 17/19/18 22/24/22 23/25/23
f 16/18/17 20/22/20 24/26/24 21/23/21
f 17/19/18 21/23/21 25/27/25 22/24/22
f 23/25/23 22/24/22 26/28/26 27/29/27
f 20/22/20 28/30/28 29/31/29 24/26/24
f 22/24/22 25/27/25 30/32/30 26/28/26
f 27/29/27 26/28/26 31/33/31 32/34/32
f 28/30/28 33/35/33 34/36/34 29/31/29
f 26/28/26 30/32/30 35/37/35 31/33/31
f 32/34/32 31/33/31 36/38/36 37/39/37
f 33/35/33 38/40/38 39/41/39 34/36/34
f 30/32/30 40/42/40 41/43/41 35/37/35
f 31/33/31 35/37/35 42/44/42 36/38/36
f 37/39/37 36/38/36 43/45/43 44/46/44
f 38/40/38 45/47/45 46/48/46 39/41/39
f 40/42/40 47/49/47 48/50/48 41/43/41
f 35/37/35 41/43/41 49/51/49 42/44/42
f 36/38/36 42/44/42 50/52/50 43/45/43
f 44/46/44 43/45/43 51/53/51 52/54/52
f 45/47/45 53/55/53 54/56/54 46/48/46
f 47/49/47 55/57/55 56/58/56 48/50/48
f 42/44/42 49/51/49 57/59/57 50/52/50
f 43/45/43 50/52/50 58/60/58 51/53/51
f 59/61/59 60/62/60 53/55/53 45/47/45
f 53/55/53 61/63/61 62/64/62 54/56/54
f 55/57/55 63/65/63 64/66/64 56/58/56
f 58/60/58 50/52/50 57/59/57 73/75/65
f 65/67/66 60/62/60 59/61/59 74/76/67
f 60/62/60 66/68/68 61/63/61 53/55/53
f 61/63/61 67/69/69 68/70/70 62/64/62
f 54/56/54 62/64/62 69/71/71 70/72/72
f 63/65/63 71/73/73 72/74/74 64/66/64
f 65/67/66 75/77/75 66/68/68 60/62/60
f 66/68/68 76/78/76 67/69/69 61/63/61
f 62/64/62 68/70/70 77/79/77 69/71/71
f 70/72/72 69/71/71 78/80/78 79/81/79
f 71/73/73 79/81/79 80/82/80 72/74/74
f 81/85/81 73/83/65 57/84/57 89/93/82
f 82/86/83 65/67/66 74/76/67 90/94/84
f 82/86/83 83/87/85 75/77/75 65/67/66
f 75/77/75 84/88/86 76/78/76 66/68/68
f 69/71/71 77/79/77 85/89/87 78/80/78
f 79/81/79 78/80/78 86/90/88 80/82/80
f 72/74/74 80/82/80 87/91/89 88/92/90
f 83/87/85 91/95/91 84/88/86 75/77/75
f 78/80/78 85/89/87 92/96/92 86/90/88
f 80/82/80 86/90/88 93/97/93 87/91/89
f 88/92/90 87/91/89 94/98/94 95/99/95
f 90/102/84 74/100/67 96/101/96 101/107/97
f 86/90/88 92/96/92 97/103/98 93/97/93
f 87/91/89 93/97/93 98/104/99 94/98/94
f 95/99/95 94/98/94 99/105/100 100/106/101
f 93/97/93 97/103/98 102/108/102 98/104/99
f 94/98/94 98/104/99 103/109/103 99/105/100
f 104/112/104 95/110/95 100/111/101 106/114/105
f 98/104/99 102/108/102 105/113/106 103/109/103
s 2
f 107/115/107 108/116/108 109/117/109 110/118/110 111/119/111
s 3
f 109/117/112 108/116/113 107/115/114 112/120/115 113/121/116 116/124/117
s 2
f 111/119/111 110/118/110 114/122/118 115/123/119
f 115/123/119 114/125/118 117/126/120 118/127/121
s 3
f 116/124/117 113/121/116 112/120/115 119/128/122 120/129/123 125/135/124
s off
f 121/130/125 115/123/126 118/127/127 122/131/128
f 114/122/129 123/132/130 124/133/131 117/134/132
f 118/127/133 117/134/134 124/133/135 122/131/136
s 4
f 123/132/137 121/136/138 122/137/139 124/133/140
s off
f 125/135/141 120/129/142 119/128/143 126/138/144 127/139/145
s 4
f 121/130/138 123/132/137 128/140/146 129/141/147
s off
f 130/142/148 125/135/149 127/139/150 131/143/151
f 119/128/152 132/144/153 133/145/154 126/138/155
f 127/139/156 126/138/157 133/145/158 131/143/159
s 4
f 134/146/160 121/130/138 129/141/147 138/150/161
f 128/140/146 123/132/137 135/147/162 139/151/163
f 129/141/147 128/140/146 136/148/164 137/149/165
s 5
f 132/144/166 130/142/167 131/143/168 133/145/169
s 4
f 138/150/161 129/141/147 137/149/165 141/153/170
f 136/148/164 128/140/146 139/151/163 142/154/171
s 5
f 130/142/167 132/144/166 140/152/172 144/156/173
f 140/152/172 132/144/166 143/155/174 147/159/175
s 4
f 145/157/176 138/150/161 141/153/170 151/163/177
f 142/154/171 139/151/163 146/158/178 152/164/179
s 5
f 148/160/180 130/142/167 144/156/173 153/165/181
f 144/156/173 140/152/172 149/161/182 150/162/183
f 149/161/182 140/152/172 147/159/175 154/166/184
f 153/165/181 144/156/173 150/162/183 155/167/185
f 154/166/184 147/159/175 156/168/186 158/170/187
f 157/169/188 153/165/181 155/167/185 159/171/189
