# This file uses centimeters as units for non-parametric coordinates.

mtllib testnodes2.mtl
g default
v 0.611101 3.397695 1.428850
v -0.655930 3.397695 2.087871
v 0.640182 3.397695 3.494324
v -0.632399 3.397695 3.494324
v 0.774938 3.070509 6.528399
v -0.691419 3.268018 6.929908
v 1.560759 2.181948 8.753957
v 1.053140 2.564511 9.691196
v 3.047869 1.637236 10.244958
v 2.678502 1.968033 11.162891
v -1.428850 3.397695 0.611101
v -2.087871 3.397695 -0.655930
v -3.494324 3.397695 0.640182
v -3.494324 3.397695 -0.632399
v -6.528399 3.070509 0.774938
v -6.929908 3.268018 -0.691419
v -8.753957 2.181948 1.560759
v -9.691196 2.564511 1.053140
v -10.244958 1.637236 3.047869
v -11.162891 1.968033 2.678502
v -10.621991 1.538116 10.617504
v -8.497593 1.538116 10.617504
v -6.373195 1.538116 10.617504
v -4.248796 1.538116 10.617504
v -2.124398 1.538116 10.617504
v 4.248796 1.538116 10.617504
v 6.373195 1.538116 10.617504
v 8.497594 1.538116 10.617504
v 10.621991 1.538116 10.617504
v -10.621991 1.538116 8.494003
v -8.497593 1.161034 8.494003
v -6.373195 1.161034 8.494003
v -4.248796 1.161034 8.494003
v -2.124398 1.161034 8.494003
v 0.000000 1.161034 8.494003
v 4.248796 1.161034 8.494003
v 6.373195 1.161034 8.494003
v 8.497594 1.161034 8.494003
v 10.621991 1.538116 8.494003
v -10.621991 1.538116 6.370503
v -8.497593 1.161034 6.370503
v -6.373195 0.237481 6.370503
v -4.248796 0.237481 6.370503
v -2.124398 0.237481 6.370503
v -0.000000 0.237481 6.370503
v 2.124399 0.237481 6.370503
v 4.248796 0.237481 6.370503
v 6.373195 0.237481 6.370503
v 8.497594 1.161034 6.370503
v 10.621991 1.538116 6.370503
v -10.621991 1.538116 4.247001
v -8.497593 1.161034 4.247001
v -6.373195 0.237481 4.247001
v -4.248796 0.237481 4.247001
v -2.124398 0.237481 4.247001
v -0.000000 0.237481 4.247001
v 2.124399 0.237481 4.247001
v 4.248796 0.237481 4.247001
v 6.373195 0.237481 4.247001
v 8.497594 1.161034 4.247001
v 10.621991 1.538116 4.247001
v -6.373195 0.237481 2.123501
v -4.248796 0.237481 2.123501
v -2.124398 0.237481 2.123501
v -0.000000 0.237481 2.123501
v 2.124399 0.237481 2.123501
v 4.248796 0.237481 2.123501
v 6.373195 0.237481 2.123501
v 8.497594 1.161034 2.123501
v 10.621991 1.538116 2.123501
v -8.497593 1.161034 0.000000
v -6.373195 0.237481 0.000000
v -4.248796 0.237481 0.000000
v -2.124398 0.237481 0.000000
v 2.124399 0.237481 0.000000
v 4.248796 0.237481 0.000000
v 6.373195 0.237481 0.000000
v 8.497594 1.161034 0.000000
v -10.621991 1.538116 -2.123501
v -8.497593 1.161034 -2.123501
v -6.373195 0.237481 -2.123501
v -4.248796 0.237481 -2.123501
v -2.124398 0.237481 -2.123501
v -0.000000 0.237481 -2.123501
v 2.124399 0.237481 -2.123501
v 4.248796 0.237481 -2.123501
v 6.373195 0.237481 -2.123501
v -10.621991 1.538116 -4.247001
v -8.497593 1.161034 -4.247001
v -6.373195 0.237481 -4.247001
v -4.248796 0.237481 -4.247001
v -2.124398 0.237481 -4.247001
v -0.000000 0.237481 -4.247001
v 2.124399 0.237481 -4.247001
v 4.248796 0.237481 -4.247001
v 6.373195 0.237481 -4.247001
v 8.497594 1.161034 -4.247001
v 10.621991 1.538116 -4.247001
v -10.621991 1.538116 -6.370503
v -8.497593 1.161034 -6.370503
v -6.373195 0.237481 -6.370503
v -4.248796 0.237481 -6.370503
v -2.124398 0.237481 -6.370503
v -0.000000 0.237481 -6.370503
v 2.124399 0.237481 -6.370503
v 4.248796 0.237481 -6.370503
v 6.373195 0.237481 -6.370503
v 8.497594 1.161034 -6.370503
v 10.621991 1.538116 -6.370503
v -10.621991 1.538116 -8.494004
v -8.497593 1.161034 -8.494004
v -6.373195 1.161034 -8.494004
v -4.248796 1.161034 -8.494004
v 0.000000 1.161034 -8.494004
v 2.124399 1.161034 -8.494004
v 4.248796 1.161034 -8.494004
v 6.373195 1.161034 -8.494004
v 8.497594 1.161034 -8.494004
v 10.621991 1.538116 -8.494004
v -10.621991 1.538116 -10.617504
v -8.497593 1.538116 -10.617504
v -6.373195 1.538116 -10.617504
v -4.248796 1.538116 -10.617504
v 2.124399 1.538116 -10.617504
v 4.248796 1.538116 -10.617504
v 6.373195 1.538116 -10.617504
v 8.497594 1.538116 -10.617504
v 10.621991 1.538116 -10.617504
v -0.611101 3.397695 -1.428850
v 0.655930 3.397695 -2.087871
v -0.640182 3.397695 -3.494324
v 0.632399 3.397695 -3.494324
v -0.774938 3.070509 -6.528399
v 0.691419 3.268018 -6.929908
v -1.560759 2.181948 -8.753957
v -1.053140 2.564511 -9.691196
v -3.047869 1.637236 -10.244958
v -2.678502 1.968033 -11.162891
v 1.428850 3.397695 -0.611101
v 2.087871 3.397695 0.655930
v 3.494324 3.397695 -0.640182
v 3.494324 3.397695 0.632399
v 6.528399 3.070509 -0.774938
v 6.929908 3.268018 0.691419
v 8.753957 2.181948 -1.560759
v 9.691196 2.564511 -1.053140
v 10.244958 1.637236 -3.047869
v 11.162891 1.968033 -2.678502
vt 0.400000 0.600000
vt 0.500000 0.600000
vt 0.400000 0.700000
vt 0.500000 0.700000
vt 0.400000 0.800000
vt 0.500000 0.800000
vt 0.400000 0.900000
vt 0.500000 0.900000
vt 0.400000 1.000000
vt 0.500000 1.000000
vt 0.400000 0.600000
vt 0.500000 0.600000
vt 0.500000 0.700000
vt 0.400000 0.700000
vt 0.500000 0.800000
vt 0.400000 0.800000
vt 0.500000 0.900000
vt 0.400000 0.900000
vt 0.500000 1.000000
vt 0.400000 1.000000
vt 0.000000 0.000000
vt 0.100000 0.000000
vt 0.100000 0.100000
vt 0.000000 0.100000
vt 0.200000 0.000000
vt 0.200000 0.100000
vt 0.300000 0.000000
vt 0.300000 0.100000
vt 0.400000 0.000000
vt 0.400000 0.100000
vt 0.700000 0.000000
vt 0.800000 0.000000
vt 0.800000 0.100000
vt 0.700000 0.100000
vt 0.900000 0.000000
vt 0.900000 0.100000
vt 1.000000 0.000000
vt 1.000000 0.100000
vt 0.100000 0.200000
vt 0.000000 0.200000
vt 0.200000 0.200000
vt 0.300000 0.200000
vt 0.400000 0.200000
vt 0.500000 0.100000
vt 0.500000 0.200000
vt 0.800000 0.200000
vt 0.700000 0.200000
vt 0.900000 0.200000
vt 1.000000 0.200000
vt 0.100000 0.300000
vt 0.000000 0.300000
vt 0.200000 0.300000
vt 0.300000 0.300000
vt 0.400000 0.300000
vt 0.500000 0.300000
vt 0.600000 0.200000
vt 0.600000 0.300000
vt 0.700000 0.300000
vt 0.800000 0.300000
vt 0.900000 0.300000
vt 1.000000 0.300000
vt 0.300000 0.400000
vt 0.200000 0.400000
vt 0.400000 0.400000
vt 0.500000 0.400000
vt 0.600000 0.400000
vt 0.700000 0.400000
vt 0.800000 0.400000
vt 0.900000 0.400000
vt 1.000000 0.400000
vt 0.300000 0.500000
vt 0.200000 0.500000
vt 0.400000 0.500000
vt 0.700000 0.500000
vt 0.600000 0.500000
vt 0.800000 0.500000
vt 0.900000 0.500000
vt 0.100000 0.500000
vt 0.200000 0.600000
vt 0.100000 0.600000
vt 0.300000 0.600000
vt 0.400000 0.600000
vt 0.700000 0.600000
vt 0.600000 0.600000
vt 0.800000 0.600000
vt 0.000000 0.600000
vt 0.100000 0.700000
vt 0.000000 0.700000
vt 0.200000 0.700000
vt 0.300000 0.700000
vt 0.400000 0.700000
vt 0.500000 0.600000
vt 0.500000 0.700000
vt 0.600000 0.700000
vt 0.700000 0.700000
vt 0.800000 0.700000
vt 0.100000 0.800000
vt 0.000000 0.800000
vt 0.200000 0.800000
vt 0.300000 0.800000
vt 0.400000 0.800000
vt 0.500000 0.800000
vt 0.600000 0.800000
vt 0.700000 0.800000
vt 0.800000 0.800000
vt 0.900000 0.700000
vt 0.900000 0.800000
vt 1.000000 0.700000
vt 1.000000 0.800000
vt 0.100000 0.900000
vt 0.000000 0.900000
vt 0.200000 0.900000
vt 0.300000 0.900000
vt 0.600000 0.900000
vt 0.500000 0.900000
vt 0.700000 0.900000
vt 0.800000 0.900000
vt 0.900000 0.900000
vt 1.000000 0.900000
vt 0.100000 1.000000
vt 0.000000 1.000000
vt 0.200000 1.000000
vt 0.300000 1.000000
vt 0.700000 1.000000
vt 0.600000 1.000000
vt 0.800000 1.000000
vt 0.900000 1.000000
vt 1.000000 1.000000
vt 0.400000 0.600000
vt 0.500000 0.600000
vt 0.500000 0.700000
vt 0.400000 0.700000
vt 0.500000 0.800000
vt 0.400000 0.800000
vt 0.500000 0.900000
vt 0.400000 0.900000
vt 0.500000 1.000000
vt 0.400000 1.000000
vt 0.400000 0.600000
vt 0.500000 0.600000
vt 0.500000 0.700000
vt 0.400000 0.700000
vt 0.500000 0.800000
vt 0.400000 0.800000
vt 0.500000 0.900000
vt 0.400000 0.900000
vt 0.500000 1.000000
vt 0.400000 1.000000
vn 0.000000 1.000000 -0.000000
vn 0.000000 1.000000 -0.000000
vn 0.054792 0.997421 0.046360
vn 0.055449 0.997359 0.046915
vn 0.201981 0.975132 0.091220
vn 0.200393 0.975486 0.090935
vn 0.402354 0.915480 -0.002769
vn 0.384805 0.922063 0.041523
vn 0.447230 0.885079 -0.128919
vn 0.447230 0.885079 -0.128919
vn 0.000000 1.000000 0.000000
vn 0.000000 1.000000 0.000000
vn -0.046360 0.997421 0.054792
vn -0.046915 0.997359 0.055449
vn -0.091220 0.975132 0.201981
vn -0.090935 0.975486 0.200393
vn 0.002770 0.915480 0.402354
vn -0.041523 0.922063 0.384805
vn 0.128919 0.885079 0.447230
vn 0.128919 0.885079 0.447230
vn 0.088059 0.992212 -0.088096
vn 0.043944 0.990290 -0.131888
vn 0.119325 0.985653 -0.119375
vn 0.131833 0.990297 -0.043963
vn 0.000000 0.984597 -0.174840
vn 0.052623 0.968368 -0.243915
vn 0.000000 0.984597 -0.174840
vn 0.000000 0.956166 -0.292824
vn 0.000000 0.984597 -0.174840
vn 0.000000 0.944112 -0.329626
vn 0.000000 0.984597 -0.174840
vn 0.000000 0.984597 -0.174840
vn -0.052623 0.968368 -0.243915
vn 0.000000 0.956166 -0.292824
vn -0.043944 0.990290 -0.131888
vn -0.119325 0.985653 -0.119375
vn -0.088059 0.992212 -0.088096
vn -0.131834 0.990297 -0.043963
vn 0.243818 0.968391 -0.052647
vn 0.174769 0.984610 0.000000
vn 0.157545 0.974853 -0.157612
vn 0.000000 0.977162 -0.212494
vn 0.000000 0.977162 -0.212494
vn 0.000000 0.917024 -0.398832
vn 0.000000 0.989654 -0.143474
vn -0.157545 0.974853 -0.157612
vn 0.000000 0.989654 -0.143474
vn -0.243818 0.968391 -0.052647
vn -0.174769 0.984610 0.000000
vn 0.292711 0.956201 0.000000
vn 0.174769 0.984610 0.000000
vn 0.143414 0.989663 0.000000
vn 0.000000 1.000000 0.000000
vn 0.000000 1.000000 0.000000
vn 0.000000 1.000000 0.000000
vn 0.000000 1.000000 0.000000
vn 0.000000 1.000000 0.000000
vn 0.000000 1.000000 0.000000
vn -0.212408 0.977181 0.000000
vn -0.292711 0.956201 0.000000
vn -0.174769 0.984610 0.000000
vn 0.000000 1.000000 0.000000
vn 0.000000 1.000000 0.000000
vn 0.000000 1.000000 0.000000
vn 0.000000 1.000000 0.000000
vn 0.000000 1.000000 0.000000
vn 0.000000 1.000000 0.000000
vn -0.212408 0.977181 0.000000
vn -0.329502 0.944155 0.000000
vn -0.174769 0.984610 0.000000
vn 0.000000 1.000000 0.000000
vn 0.143414 0.989663 0.000000
vn 0.000000 1.000000 0.000000
vn 0.000000 1.000000 0.000000
vn 0.000000 1.000000 0.000000
vn -0.143414 0.989663 0.000000
vn -0.398691 0.917086 0.000000
vn 0.398691 0.917085 0.000000
vn 0.212408 0.977181 0.000000
vn 0.329502 0.944155 0.000000
vn 0.000000 1.000000 0.000000
vn 0.000000 1.000000 0.000000
vn 0.000000 1.000000 0.000000
vn 0.000000 1.000000 0.000000
vn 0.000000 1.000000 0.000000
vn 0.174769 0.984610 0.000000
vn 0.292711 0.956201 0.000000
vn 0.174768 0.984610 0.000000
vn 0.212408 0.977181 0.000000
vn 0.000000 1.000000 0.000000
vn 0.000000 1.000000 0.000000
vn 0.000000 1.000000 0.000000
vn 0.000000 1.000000 0.000000
vn 0.000000 1.000000 0.000000
vn 0.000000 1.000000 0.000000
vn -0.143414 0.989663 0.000000
vn 0.243818 0.968391 0.052647
vn 0.174768 0.984610 0.000000
vn 0.157545 0.974853 0.157612
vn 0.000000 0.989654 0.143474
vn 0.000000 1.000000 0.000000
vn 0.000000 0.989654 0.143474
vn 0.000000 0.977162 0.212494
vn 0.000000 0.977162 0.212494
vn -0.157545 0.974853 0.157612
vn -0.292711 0.956201 0.000000
vn -0.243818 0.968391 0.052647
vn -0.174769 0.984610 0.000000
vn -0.174769 0.984610 0.000000
vn 0.119325 0.985653 0.119375
vn 0.131833 0.990297 0.043963
vn 0.052623 0.968368 0.243915
vn 0.000000 0.956166 0.292824
vn 0.000000 0.944112 0.329626
vn 0.000000 0.917024 0.398832
vn 0.000000 0.956166 0.292824
vn -0.052623 0.968368 0.243915
vn -0.119325 0.985653 0.119375
vn -0.131834 0.990297 0.043963
vn 0.043944 0.990290 0.131888
vn 0.088059 0.992212 0.088096
vn 0.000000 0.984597 0.174840
vn 0.000000 0.984597 0.174840
vn 0.000000 0.984597 0.174840
vn 0.000000 0.984597 0.174840
vn 0.000000 0.984597 0.174840
vn -0.043944 0.990290 0.131888
vn -0.088059 0.992212 0.088096
vn 0.000000 1.000000 0.000000
vn 0.000000 1.000000 0.000000
vn -0.054792 0.997421 -0.046360
vn -0.055449 0.997359 -0.046915
vn -0.201981 0.975132 -0.091220
vn -0.200393 0.975486 -0.090935
vn -0.402354 0.915480 0.002769
vn -0.384805 0.922063 -0.041523
vn -0.447230 0.885079 0.128919
vn -0.447230 0.885079 0.128919
vn 0.000000 1.000000 -0.000000
vn 0.000000 1.000000 -0.000000
vn 0.046360 0.997421 -0.054792
vn 0.046915 0.997359 -0.055449
vn 0.091220 0.975132 -0.201981
vn 0.090935 0.975486 -0.200393
vn -0.002770 0.915480 -0.402354
vn 0.041523 0.922063 -0.384805
vn -0.128919 0.885079 -0.447230
vn -0.128919 0.885079 -0.447230
s 1
g pPlane6
usemtl initialShadingGroup
f 1/1/1 2/2/2 4/4/3 3/3/4
f 3/3/4 4/4/3 6/6/5 5/5/6
f 5/5/6 6/6/5 8/8/7 7/7/8
f 7/7/8 8/8/7 10/10/9 9/9/10
s 2
f 11/11/11 12/12/12 14/13/13 13/14/14
f 13/14/14 14/13/13 16/15/15 15/16/16
f 15/16/16 16/15/15 18/17/17 17/18/18
f 17/18/18 18/17/17 20/19/19 19/20/20
s 3
f 21/21/21 22/22/22 31/23/23 30/24/24
f 22/22/22 23/25/25 32/26/26 31/23/23
f 23/25/25 24/27/27 33/28/28 32/26/26
f 24/27/27 25/29/29 34/30/30 33/28/28
f 26/31/31 27/32/32 37/33/33 36/34/34
f 27/32/32 28/35/35 38/36/36 37/33/33
f 28/35/35 29/37/37 39/38/38 38/36/36
f 30/24/24 31/23/23 41/39/39 40/40/40
f 31/23/23 32/26/26 42/41/41 41/39/39
f 32/26/26 33/28/28 43/42/42 42/41/41
f 33/28/28 34/30/30 44/43/43 43/42/42
f 34/30/30 35/44/44 45/45/45 44/43/43
f 36/34/34 37/33/33 48/46/46 47/47/47
f 37/33/33 38/36/36 49/48/48 48/46/46
f 38/36/36 39/38/38 50/49/49 49/48/48
f 40/40/40 41/39/39 52/50/50 51/51/51
f 41/39/39 42/41/41 53/52/52 52/50/50
f 42/41/41 43/42/42 54/53/53 53/52/52
f 43/42/42 44/43/43 55/54/54 54/53/53
f 44/43/43 45/45/45 56/55/55 55/54/54
f 45/45/45 46/56/56 57/57/57 56/55/55
f 46/56/56 47/47/47 58/58/58 57/57/57
f 47/47/47 48/46/46 59/59/59 58/58/58
f 48/46/46 49/48/48 60/60/60 59/59/59
f 49/48/48 50/49/49 61/61/61 60/60/60
f 53/52/52 54/53/53 63/62/62 62/63/63
f 54/53/53 55/54/54 64/64/64 63/62/62
f 55/54/54 56/55/55 65/65/65 64/64/64
f 56/55/55 57/57/57 66/66/66 65/65/65
f 57/57/57 58/58/58 67/67/67 66/66/66
f 58/58/58 59/59/59 68/68/68 67/67/67
f 59/59/59 60/60/60 69/69/69 68/68/68
f 60/60/60 61/61/61 70/70/70 69/69/69
f 62/63/63 63/62/62 73/71/71 72/72/72
f 63/62/62 64/64/64 74/73/73 73/71/71
f 66/66/66 67/67/67 76/74/74 75/75/75
f 67/67/67 68/68/68 77/76/76 76/74/74
f 68/68/68 69/69/69 78/77/77 77/76/76
f 71/78/78 72/72/72 81/79/79 80/80/80
f 72/72/72 73/71/71 82/81/81 81/79/79
f 73/71/71 74/73/73 83/82/82 82/81/81
f 75/75/75 76/74/74 86/83/83 85/84/84
f 76/74/74 77/76/76 87/85/85 86/83/83
f 79/86/86 80/80/80 89/87/87 88/88/88
f 80/80/80 81/79/79 90/89/89 89/87/87
f 81/79/79 82/81/81 91/90/90 90/89/89
f 82/81/81 83/82/82 92/91/91 91/90/90
f 83/82/82 84/92/92 93/93/93 92/91/91
f 84/92/92 85/84/84 94/94/94 93/93/93
f 85/84/84 86/83/83 95/95/95 94/94/94
f 86/83/83 87/85/85 96/96/96 95/95/95
f 88/88/88 89/87/87 100/97/97 99/98/98
f 89/87/87 90/89/89 101/99/99 100/97/97
f 90/89/89 91/90/90 102/100/100 101/99/99
f 91/90/90 92/91/91 103/101/101 102/100/100
f 92/91/91 93/93/93 104/102/102 103/101/101
f 93/93/93 94/94/94 105/103/103 104/102/102
f 94/94/94 95/95/95 106/104/104 105/103/103
f 95/95/95 96/96/96 107/105/105 106/104/104
f 96/96/96 97/106/106 108/107/107 107/105/105
f 97/106/106 98/108/108 109/109/109 108/107/107
f 99/98/98 100/97/97 111/110/110 110/111/111
f 100/97/97 101/99/99 112/112/112 111/110/110
f 101/99/99 102/100/100 113/113/113 112/112/112
f 104/102/102 105/103/103 115/114/114 114/115/115
f 105/103/103 106/104/104 116/116/116 115/114/114
f 106/104/104 107/105/105 117/117/117 116/116/116
f 107/105/105 108/107/107 118/118/118 117/117/117
f 108/107/107 109/109/109 119/119/119 118/118/118
f 110/111/111 111/110/110 121/120/120 120/121/121
f 111/110/110 112/112/112 122/122/122 121/120/120
f 112/112/112 113/113/113 123/123/123 122/122/122
f 115/114/114 116/116/116 125/124/124 124/125/125
f 116/116/116 117/117/117 126/126/126 125/124/124
f 117/117/117 118/118/118 127/127/127 126/126/126
f 118/118/118 119/119/119 128/128/128 127/127/127
s 5
f 129/129/129 130/130/130 132/131/131 131/132/132
f 131/132/132 132/131/131 134/133/133 133/134/134
f 133/134/134 134/133/133 136/135/135 135/136/136
f 135/136/136 136/135/135 138/137/137 137/138/138
s 6
f 139/139/139 140/140/140 142/141/141 141/142/142
f 141/142/142 142/141/141 144/143/143 143/144/144
f 143/144/144 144/143/143 146/145/145 145/146/146
f 145/146/146 146/145/145 148/147/147 147/148/148
