# This file uses centimeters as units for non-parametric coordinates.

mtllib wrapitemspawn.mtl
g default
v -3.380193 0.149006 4.404525
v 4.802135 0.149006 4.404521
v 4.802131 0.149006 -3.777802
v -3.380195 0.149006 -3.777800
v 0.431645 3.327977 4.342215
v 4.735487 3.327977 -0.050643
v 0.342625 3.327977 -4.354455
v -3.961195 3.327977 0.038388
vt 0.100000 0.700000
vt 0.200000 0.700000
vt 0.200000 0.800000
vt 0.100000 0.800000
vt 0.000000 0.900000
vt 0.100000 0.900000
vt 0.100000 1.000000
vt 0.000000 1.000000
vn 0.000000 1.000000 0.000000
vn 0.000000 1.000000 0.000000
vn 0.000000 1.000000 0.000000
vn 0.000000 1.000000 0.000000
vn 0.000000 1.000000 0.000000
vn 0.000000 1.000000 0.000000
vn 0.000000 1.000000 0.000000
vn 0.000000 1.000000 0.000000
s off
g pPlane8
usemtl initialShadingGroup
f 1/1/1 2/2/2 3/3/3 4/4/4
f 5/5/5 6/6/6 7/7/7 8/8/8
