# This file uses centimeters as units for non-parametric coordinates.

mtllib bowlitemspawn.mtl
g default
v -0.035913 0.651550 9.530179
v 9.535235 0.651550 -0.040969
v -9.607079 0.651550 -0.040986
v -0.035930 0.651550 -9.612135
v -0.035922 0.967427 -0.040978
vt 0.000000 0.100000
vt 0.100000 0.100000
vt 0.100000 0.200000
vt 0.000000 0.200000
vt 0.050000 0.150000
vn 0.000000 1.000000 0.000000
vn 0.000000 0.999456 0.032985
vn 0.032985 0.999456 -0.000000
vn 0.000000 0.999456 -0.032985
vn -0.032985 0.999456 -0.000000
s 1
g pPlane7
usemtl spawn_initialShadingGroup
f 5/5/1 1/1/2 2/2/3
f 5/5/1 2/2/3 4/3/4
f 5/5/1 4/3/4 3/4/5
f 5/5/1 3/4/5 1/1/2
