# This file uses centimeters as units for non-parametric coordinates.

mtllib armourPack.mtl
g default
v -0.316244 -0.258760 -0.000000
v -0.003109 -0.427219 -0.000000
v 0.296871 -0.276172 -0.000000
v -0.447112 0.060126 -0.000000
v 0.000000 0.000000 0.000000
v 0.409035 0.054999 0.000000
v -0.479457 0.554180 -0.000000
v -0.010305 0.326831 -0.000000
v 0.462357 0.542187 0.000000
v -0.316244 -0.258760 0.087265
v -0.003109 -0.427219 0.087265
v -0.000000 0.000000 0.087265
v -0.447112 0.060126 0.087265
v 0.296871 -0.276172 0.087265
v 0.409035 0.054999 0.087265
v -0.010305 0.326831 0.087265
v -0.479457 0.554180 0.087265
v 0.462357 0.542187 0.087265
vt 0.000000 0.000000
vt 0.500000 0.000000
vt 1.000000 0.000000
vt 0.000000 0.500000
vt 0.500000 0.500000
vt 1.000000 0.500000
vt 0.000000 1.000000
vt 0.500000 1.000000
vt 1.000000 1.000000
vt 0.000000 0.000000
vt 0.500000 0.000000
vt 0.500000 0.500000
vt 0.000000 0.500000
vt 1.000000 0.000000
vt 1.000000 0.500000
vt 0.500000 1.000000
vt 0.000000 1.000000
vt 1.000000 1.000000
vt 0.000000 0.000000
vt 0.500000 0.000000
vt 0.000000 0.500000
vt 1.000000 0.000000
vt 1.000000 0.500000
vt 0.500000 1.000000
vt 0.000000 1.000000
vt 1.000000 1.000000
vn 0.000000 0.000000 1.000000
vn -0.000000 0.000000 1.000000
vn -0.000000 0.000000 1.000000
vn 0.000000 0.000000 1.000000
vn -0.000000 -0.000000 1.000000
vn -0.000000 0.000000 1.000000
vn -0.000000 0.000000 1.000000
vn 0.000000 0.000000 1.000000
vn -0.000000 0.000000 1.000000
vn 0.000000 -0.000000 -1.000000
vn -0.000000 -0.000000 -1.000000
vn 0.000000 -0.000000 -1.000000
vn 0.000000 0.000000 -1.000000
vn 0.000000 -0.000000 -1.000000
vn 0.000000 0.000000 -1.000000
vn -0.000000 -0.000000 -1.000000
vn 0.000000 -0.000000 -1.000000
vn 0.000000 -0.000000 -1.000000
vn -0.473769 -0.880649 0.000000
vn -0.473769 -0.880649 0.000000
vn -0.473769 -0.880649 0.000000
vn -0.473769 -0.880649 0.000000
vn -0.980436 -0.196840 0.000000
vn -0.925125 -0.379663 0.000000
vn -0.925125 -0.379663 0.000000
vn -0.980436 -0.196840 0.000000
vn 0.449730 -0.893165 0.000000
vn 0.449730 -0.893165 0.000000
vn 0.449730 -0.893165 0.000000
vn 0.449730 -0.893165 0.000000
vn 0.947151 -0.320788 0.000000
vn 0.980161 -0.198205 -0.000000
vn 0.980161 -0.198205 -0.000000
vn 0.947151 -0.320788 0.000000
vn 0.012733 0.999919 -0.000000
vn 0.436089 0.899904 -0.000000
vn 0.436089 0.899904 -0.000000
vn 0.012733 0.999919 -0.000000
vn -0.997864 -0.065328 0.000000
vn -0.997864 -0.065328 0.000000
vn 0.994064 -0.108801 -0.000000
vn 0.994064 -0.108801 -0.000000
vn -0.414616 0.909997 -0.000000
vn -0.414616 0.909997 -0.000000
s 1
g pPlane1
usemtl initialShadingGroup
f 10/19/1 11/20/2 12/5/3 13/21/4
f 11/20/2 14/22/5 15/23/6 12/5/3
f 13/21/4 12/5/3 16/24/7 17/25/8
f 12/5/3 15/23/6 18/26/9 16/24/7
s 2
f 1/10/10 4/13/11 5/12/12 2/11/13
f 2/11/13 5/12/12 6/15/14 3/14/15
f 4/13/11 7/17/16 8/16/17 5/12/12
f 5/12/12 8/16/17 9/18/18 6/15/14
s off
f 1/1/19 2/2/20 11/20/21 10/19/22
s 3
f 4/4/23 1/1/24 10/19/25 13/21/26
s off
f 2/2/27 3/3/28 14/22/29 11/20/30
s 4
f 3/3/31 6/6/32 15/23/33 14/22/34
s 5
f 8/8/35 7/7/36 17/25/37 16/24/38
s 3
f 7/7/39 4/4/23 13/21/26 17/25/40
s 4
f 6/6/32 9/9/41 18/26/42 15/23/33
s 5
f 9/9/43 8/8/35 16/24/38 18/26/44
