# Blender v2.78 (sub 0) OBJ File: 'lightCarTire.blend'
# www.blender.org
mtllib lightCarTire.mtl
o Cube
v -0.127286 0.020007 -0.479625
v 0.150898 0.020007 -0.169042
v -0.127286 -0.215630 -0.416486
v 0.150898 -0.060339 -0.147513
v -0.127286 -0.388128 -0.243988
v 0.150898 -0.119156 -0.088697
v -0.127286 -0.451267 -0.008351
v 0.150898 -0.140684 -0.008352
v -0.127286 -0.388128 0.227285
v 0.150898 -0.119155 0.071994
v -0.127286 -0.215630 0.399784
v 0.150898 -0.060338 0.130811
v -0.127286 0.020007 0.462923
v 0.150898 0.020007 0.152339
v -0.127286 0.255643 0.399784
v 0.150898 0.100352 0.130811
v -0.127286 0.428142 0.227285
v 0.150898 0.159169 0.071994
v -0.127286 0.491280 -0.008351
v 0.150898 0.180697 -0.008351
v -0.127286 0.428142 -0.243988
v 0.150898 0.159169 -0.088697
v -0.127286 0.255644 -0.416486
v 0.150898 0.100352 -0.147514
v 0.150898 -0.215630 -0.416486
v 0.150898 0.020007 -0.479625
v 0.150898 -0.388128 -0.243988
v 0.150898 -0.451267 -0.008352
v 0.150898 -0.388128 0.227285
v 0.150898 -0.215630 0.399784
v 0.150898 0.020007 0.462923
v 0.150898 0.255643 0.399784
v 0.150898 0.428142 0.227285
v 0.150898 0.491280 -0.008351
v 0.150898 0.428142 -0.243988
v 0.150898 0.255644 -0.416486
v 0.150898 -0.137984 -0.282000
v 0.150898 0.020007 -0.324333
v 0.150898 -0.253642 -0.166342
v 0.150898 -0.295975 -0.008352
v 0.150898 -0.253642 0.149640
v 0.150898 -0.137984 0.265297
v 0.150898 0.020007 0.307631
v 0.150898 0.177998 0.265297
v 0.150898 0.293655 0.149640
v 0.150898 0.335989 -0.008351
v 0.150898 0.293655 -0.166342
v 0.150898 0.177998 -0.282000
v 0.101567 -0.137984 -0.282000
v 0.101567 0.020007 -0.324333
v 0.101567 -0.253642 -0.166342
v 0.101567 -0.295975 -0.008352
v 0.101567 -0.253642 0.149640
v 0.101567 -0.137984 0.265297
v 0.101567 0.020007 0.307631
v 0.101567 0.177998 0.265297
v 0.101567 0.293655 0.149640
v 0.101567 0.335989 -0.008351
v 0.101567 0.293655 -0.166342
v 0.101567 0.177998 -0.282000
v 0.101567 -0.060339 -0.147513
v 0.101567 0.020007 -0.169042
v 0.101567 -0.119156 -0.088697
v 0.101567 -0.140684 -0.008352
v 0.101567 -0.119155 0.071994
v 0.101567 -0.060338 0.130811
v 0.101567 0.020007 0.152339
v 0.101567 0.100352 0.130811
v 0.101567 0.159169 0.071994
v 0.101567 0.180697 -0.008351
v 0.101567 0.159169 -0.088697
v 0.101567 0.100352 -0.147514
vn -0.0000 -0.2588 -0.9659
vn -0.0000 -0.7071 -0.7071
vn -0.0000 -0.9659 -0.2588
vn 0.0000 -0.9659 0.2588
vn -0.0000 -0.7071 0.7071
vn 0.0000 -0.2588 0.9659
vn 0.0000 0.2588 0.9659
vn 0.0000 0.7071 0.7071
vn 0.0000 0.9659 0.2588
vn 0.0000 0.9659 -0.2588
vn 1.0000 -0.0000 0.0000
vn 0.0000 0.7071 -0.7071
vn 0.0000 0.2588 -0.9659
vn -1.0000 0.0000 0.0000
usemtl Material
s off
f 26//1 3//1 1//1
f 3//2 27//2 5//2
f 5//3 28//3 7//3
f 7//4 29//4 9//4
f 9//5 30//5 11//5
f 30//6 13//6 11//6
f 13//7 32//7 15//7
f 32//8 17//8 15//8
f 33//9 19//9 17//9
f 34//10 21//10 19//10
f 22//11 14//11 2//11
f 35//12 23//12 21//12
f 36//13 1//13 23//13
f 7//14 15//14 3//14
f 38//11 25//11 26//11
f 39//11 25//11 37//11
f 39//11 28//11 27//11
f 40//11 29//11 28//11
f 41//11 30//11 29//11
f 43//11 30//11 42//11
f 43//11 32//11 31//11
f 44//11 33//11 32//11
f 46//11 33//11 45//11
f 47//11 34//11 46//11
f 47//11 36//11 35//11
f 48//11 26//11 36//11
f 2//13 72//13 24//13
f 42//13 55//13 43//13
f 10//4 64//4 8//4
f 24//12 71//12 22//12
f 41//12 54//12 42//12
f 8//3 63//3 6//3
f 48//6 50//6 38//6
f 22//10 70//10 20//10
f 40//10 53//10 41//10
f 6//2 61//2 4//2
f 47//5 60//5 48//5
f 20//9 69//9 18//9
f 62//11 49//11 50//11
f 63//11 49//11 61//11
f 63//11 52//11 51//11
f 64//11 53//11 52//11
f 66//11 53//11 65//11
f 66//11 55//11 54//11
f 68//11 55//11 67//11
f 68//11 57//11 56//11
f 69//11 58//11 57//11
f 70//11 59//11 58//11
f 72//11 59//11 71//11
f 72//11 50//11 60//11
f 12//5 65//5 10//5
f 43//1 56//1 44//1
f 14//6 66//6 12//6
f 44//2 57//2 45//2
f 38//7 49//7 37//7
f 16//7 67//7 14//7
f 45//3 58//3 46//3
f 37//8 51//8 39//8
f 18//8 68//8 16//8
f 46//4 59//4 47//4
f 4//1 62//1 2//1
f 39//9 52//9 40//9
f 26//1 25//1 3//1
f 3//2 25//2 27//2
f 5//3 27//3 28//3
f 7//4 28//4 29//4
f 9//5 29//5 30//5
f 30//6 31//6 13//6
f 13//7 31//7 32//7
f 32//8 33//8 17//8
f 33//9 34//9 19//9
f 34//10 35//10 21//10
f 6//11 4//11 2//11
f 2//11 24//11 22//11
f 22//11 20//11 18//11
f 18//11 16//11 14//11
f 14//11 12//11 10//11
f 10//11 8//11 6//11
f 6//11 2//11 14//11
f 22//11 18//11 14//11
f 14//11 10//11 6//11
f 35//12 36//12 23//12
f 36//13 26//13 1//13
f 23//14 1//14 3//14
f 3//14 5//14 7//14
f 7//14 9//14 11//14
f 11//14 13//14 15//14
f 15//14 17//14 23//14
f 19//14 21//14 23//14
f 23//14 3//14 15//14
f 7//14 11//14 15//14
f 17//14 19//14 23//14
f 38//11 37//11 25//11
f 39//11 27//11 25//11
f 39//11 40//11 28//11
f 40//11 41//11 29//11
f 41//11 42//11 30//11
f 43//11 31//11 30//11
f 43//11 44//11 32//11
f 44//11 45//11 33//11
f 46//11 34//11 33//11
f 47//11 35//11 34//11
f 47//11 48//11 36//11
f 48//11 38//11 26//11
f 2//13 62//13 72//13
f 42//13 54//13 55//13
f 10//4 65//4 64//4
f 24//12 72//12 71//12
f 41//12 53//12 54//12
f 8//3 64//3 63//3
f 48//6 60//6 50//6
f 22//10 71//10 70//10
f 40//10 52//10 53//10
f 6//2 63//2 61//2
f 47//5 59//5 60//5
f 20//9 70//9 69//9
f 62//11 61//11 49//11
f 63//11 51//11 49//11
f 63//11 64//11 52//11
f 64//11 65//11 53//11
f 66//11 54//11 53//11
f 66//11 67//11 55//11
f 68//11 56//11 55//11
f 68//11 69//11 57//11
f 69//11 70//11 58//11
f 70//11 71//11 59//11
f 72//11 60//11 59//11
f 72//11 62//11 50//11
f 12//5 66//5 65//5
f 43//1 55//1 56//1
f 14//6 67//6 66//6
f 44//2 56//2 57//2
f 38//7 50//7 49//7
f 16//7 68//7 67//7
f 45//3 57//3 58//3
f 37//8 49//8 51//8
f 18//8 69//8 68//8
f 46//4 58//4 59//4
f 4//1 61//1 62//1
f 39//9 51//9 52//9
