# Blender v2.78 (sub 0) OBJ File: 'largeCarTire.blend'
# www.blender.org
mtllib largeCarTire.mtl
o Cube
v 0.147060 0.107315 -0.194201
v -0.225117 0.255764 -0.487138
v 0.150050 0.182526 -0.127419
v -0.217031 0.459151 -0.306545
v 0.154325 0.214237 -0.032016
v -0.205470 0.544902 -0.048554
v 0.158740 0.193949 0.066446
v -0.193531 0.490041 0.217704
v 0.162112 0.127100 0.141581
v -0.184414 0.309266 0.420887
v 0.163537 0.031600 0.173260
v -0.180561 0.051017 0.506552
v 0.162633 -0.066959 0.152992
v -0.183005 -0.215509 0.451744
v 0.159643 -0.142171 0.086210
v -0.191091 -0.418896 0.271151
v 0.155367 -0.173881 -0.009194
v -0.202652 -0.504648 0.013161
v 0.150953 -0.153594 -0.107655
v -0.214591 -0.449786 -0.253098
v 0.147581 -0.086745 -0.182791
v -0.223708 -0.269012 -0.456281
v 0.146157 0.008755 -0.214469
v -0.227561 -0.010762 -0.541945
v 0.151327 -0.010711 -0.545749
v 0.153771 0.255815 -0.490942
v 0.173417 0.544954 -0.052358
v 0.185356 0.490092 0.213901
v 0.198326 0.051068 0.502748
v 0.195882 -0.215458 0.447941
v 0.161857 0.459203 -0.310348
v 0.187797 -0.418845 0.267348
v 0.176235 -0.504596 0.009357
v 0.194473 0.309317 0.417084
v 0.164297 -0.449735 -0.256901
v 0.155180 -0.268960 -0.460084
v 0.158732 -0.000978 -0.380557
v 0.160405 0.181566 -0.343019
v 0.173861 0.379596 -0.042634
v 0.182038 0.342021 0.139725
v 0.190922 0.041335 0.337556
v 0.189247 -0.141208 0.300019
v 0.165943 0.320865 -0.219332
v 0.183710 -0.280508 0.176331
v 0.175791 -0.339238 -0.000366
v 0.188283 0.218209 0.278885
v 0.167615 -0.301664 -0.182726
v 0.161371 -0.177852 -0.321885
v 0.138752 -0.000979 -0.379661
v 0.140425 0.181565 -0.342124
v 0.153881 0.379595 -0.041739
v 0.162058 0.342020 0.140621
v 0.170942 0.041334 0.338452
v 0.169268 -0.141209 0.300915
v 0.145963 0.320864 -0.218436
v 0.163730 -0.280509 0.177227
v 0.155811 -0.339239 0.000530
v 0.168303 0.218208 0.279780
v 0.147635 -0.301665 -0.181830
v 0.141391 -0.177853 -0.320989
v 0.176126 0.008756 -0.215812
v 0.177030 0.107317 -0.195545
v 0.184295 0.214238 -0.033359
v 0.188710 0.193951 0.065102
v 0.193507 0.031602 0.171916
v 0.192603 -0.066958 0.151649
v 0.180020 0.182528 -0.128762
v 0.189613 -0.142170 0.084867
v 0.185337 -0.173880 -0.010537
v 0.192082 0.127101 0.140238
v 0.180923 -0.153593 -0.108998
v 0.177551 -0.086743 -0.184134
v 0.148742 -0.000978 -0.380109
v 0.150415 0.181565 -0.342571
v 0.180932 0.041334 0.338004
v 0.179258 -0.141209 0.300467
v 0.173720 -0.280508 0.176779
v 0.165801 -0.339239 0.000082
v 0.172048 0.342021 0.140173
v 0.178293 0.218209 0.279333
v 0.155953 0.320864 -0.218884
v 0.163871 0.379595 -0.042186
v 0.157625 -0.301665 -0.182278
v 0.151381 -0.177852 -0.321437
v 0.156147 0.008755 -0.214917
v 0.157050 0.107316 -0.194649
v 0.173527 0.031601 0.172812
v 0.172623 -0.066959 0.152545
v 0.169633 -0.142171 0.085762
v 0.165357 -0.173881 -0.009641
v 0.168730 0.193950 0.065998
v 0.172102 0.127100 0.141134
v 0.160040 0.182527 -0.127867
v 0.164315 0.214237 -0.032463
v 0.160943 -0.153594 -0.108102
v 0.157571 -0.086744 -0.183238
vn -0.0099 0.2015 -0.9794
vn -0.9990 -0.0000 0.0448
vn 0.0066 0.7472 0.6645
vn 0.0033 -0.9490 0.3153
vn -0.0076 0.6641 -0.7476
vn 0.0095 0.3150 0.9491
vn -0.0439 0.2016 -0.9785
vn -0.0019 -0.9794 -0.2017
vn -0.0033 0.9490 -0.3153
vn 0.0099 -0.2015 0.9794
vn -0.0066 -0.7472 -0.6645
vn 0.0019 0.9794 0.2017
vn 0.0076 -0.6641 0.7476
vn -0.0095 -0.3150 -0.9491
vn 0.9990 0.0000 -0.0448
vn 0.9990 0.0001 -0.0448
vn 0.0439 -0.2016 0.9785
vn -0.0090 -0.9795 -0.2014
vn 0.0335 -0.6643 0.7467
vn -0.0335 0.6643 -0.7467
vn -0.0142 0.9490 -0.3148
vn -0.0297 -0.7474 -0.6637
vn 0.0090 0.9795 0.2014
vn 0.0142 -0.9490 0.3148
vn 0.0297 0.7474 0.6637
vn 0.0425 0.3151 0.9481
vn -0.0425 -0.3151 -0.9481
vn 0.0027 -0.9983 0.0587
vn -0.0447 -0.0588 -0.9973
vn 0.0200 0.8939 0.4478
vn 0.0374 0.5500 0.8343
vn 0.0247 -0.8351 0.5495
vn -0.0400 0.4482 -0.8930
vn 0.0400 -0.4482 0.8930
vn 0.0447 0.0588 0.9973
vn -0.0247 0.8351 -0.5495
vn -0.0200 -0.8939 -0.4478
vn -0.0027 0.9983 -0.0587
vn -0.0374 -0.5500 -0.8343
vn -0.9990 -0.0001 0.0448
usemtl Material
s off
f 2//1 25//1 24//1
f 2//2 18//2 10//2
f 10//3 28//3 8//3
f 33//4 16//4 18//4
f 4//5 26//5 2//5
f 12//6 34//6 10//6
f 23//7 62//7 61//7
f 35//8 18//8 20//8
f 6//9 31//9 4//9
f 30//10 12//10 14//10
f 36//11 20//11 22//11
f 8//12 27//12 6//12
f 32//13 14//13 16//13
f 25//14 22//14 24//14
f 37//15 26//15 38//15
f 40//15 27//15 28//15
f 42//15 29//15 30//15
f 43//15 26//15 31//15
f 42//15 32//15 44//15
f 44//15 33//15 45//15
f 40//15 34//15 46//15
f 47//15 33//15 35//15
f 43//15 27//15 39//15
f 47//15 36//15 48//15
f 37//15 36//15 25//15
f 46//16 29//16 41//16
f 49//17 38//17 50//17
f 51//18 40//18 52//18
f 53//7 42//7 54//7
f 50//19 43//19 55//19
f 56//20 42//20 44//20
f 57//21 44//21 45//21
f 52//22 46//22 58//22
f 59//23 45//23 47//23
f 55//24 39//24 51//24
f 60//25 47//25 48//25
f 49//26 48//26 37//26
f 58//27 41//27 53//27
f 23//28 73//28 85//28
f 7//15 51//15 52//15
f 57//29 90//29 78//29
f 3//15 50//15 55//15
f 15//15 54//15 56//15
f 15//21 90//21 17//21
f 1//30 74//30 50//30
f 19//15 57//15 59//15
f 58//25 79//25 52//25
f 56//31 89//31 15//31
f 23//15 60//15 49//15
f 9//16 53//16 11//16
f 71//15 67//15 65//15
f 19//18 69//18 17//18
f 15//19 66//19 13//19
f 11//26 70//26 9//26
f 7//23 63//23 5//23
f 3//21 63//21 67//21
f 15//24 69//24 68//24
f 11//17 66//17 65//17
f 19//22 72//22 71//22
f 9//25 64//25 7//25
f 3//20 62//20 1//20
f 21//27 61//27 72//27
f 85//16 74//16 86//16
f 88//15 75//15 76//15
f 89//15 78//15 90//15
f 91//15 80//15 92//15
f 93//15 82//15 94//15
f 95//15 84//15 96//15
f 49//7 74//7 73//7
f 9//22 91//22 92//22
f 58//32 92//32 80//32
f 51//21 81//21 55//21
f 52//33 91//33 7//33
f 19//34 83//34 95//34
f 59//22 84//22 83//22
f 23//17 86//17 1//17
f 5//35 82//35 51//35
f 53//17 76//17 75//17
f 5//24 93//24 94//24
f 21//36 84//36 60//36
f 54//37 88//37 76//37
f 19//25 96//25 21//25
f 11//7 88//7 13//7
f 53//38 87//38 11//38
f 3//39 81//39 93//39
f 56//24 78//24 77//24
f 2//1 26//1 25//1
f 10//2 8//2 6//2
f 6//2 4//2 2//2
f 2//2 24//2 18//2
f 22//40 20//40 18//40
f 18//2 16//2 14//2
f 14//2 12//2 10//2
f 10//2 6//2 2//2
f 24//2 22//2 18//2
f 18//2 14//2 10//2
f 10//3 34//3 28//3
f 33//4 32//4 16//4
f 4//5 31//5 26//5
f 12//6 29//6 34//6
f 23//7 1//7 62//7
f 35//8 33//8 18//8
f 6//9 27//9 31//9
f 30//10 29//10 12//10
f 36//11 35//11 20//11
f 8//12 28//12 27//12
f 32//13 30//13 14//13
f 25//14 36//14 22//14
f 37//15 25//15 26//15
f 40//15 39//15 27//15
f 42//15 41//15 29//15
f 43//15 38//15 26//15
f 42//15 30//15 32//15
f 44//15 32//15 33//15
f 40//15 28//15 34//15
f 47//15 45//15 33//15
f 43//15 31//15 27//15
f 47//15 35//15 36//15
f 37//15 48//15 36//15
f 46//15 34//15 29//15
f 49//17 37//17 38//17
f 51//18 39//18 40//18
f 53//7 41//7 42//7
f 50//19 38//19 43//19
f 56//20 54//20 42//20
f 57//21 56//21 44//21
f 52//22 40//22 46//22
f 59//23 57//23 45//23
f 55//24 43//24 39//24
f 60//25 59//25 47//25
f 49//26 60//26 48//26
f 58//27 46//27 41//27
f 23//28 49//28 73//28
f 7//15 5//15 51//15
f 57//29 17//29 90//29
f 3//15 1//15 50//15
f 15//16 13//16 54//16
f 15//21 89//21 90//21
f 1//30 86//30 74//30
f 19//15 17//15 57//15
f 58//25 80//25 79//25
f 56//31 77//31 89//31
f 23//15 21//15 60//15
f 9//16 58//16 53//16
f 65//15 66//15 68//15
f 68//15 69//15 65//15
f 71//15 72//15 61//15
f 61//16 62//16 71//16
f 67//16 63//16 65//16
f 64//16 70//16 65//16
f 65//15 69//15 71//15
f 71//15 62//15 67//15
f 63//16 64//16 65//16
f 19//18 71//18 69//18
f 15//19 68//19 66//19
f 11//26 65//26 70//26
f 7//23 64//23 63//23
f 3//21 5//21 63//21
f 15//24 17//24 69//24
f 11//17 13//17 66//17
f 19//22 21//22 72//22
f 9//25 70//25 64//25
f 3//20 67//20 62//20
f 21//27 23//27 61//27
f 85//16 73//16 74//16
f 88//15 87//15 75//15
f 89//15 77//15 78//15
f 91//15 79//15 80//15
f 93//15 81//15 82//15
f 95//15 83//15 84//15
f 49//7 50//7 74//7
f 9//22 7//22 91//22
f 58//32 9//32 92//32
f 51//21 82//21 81//21
f 52//33 79//33 91//33
f 19//34 59//34 83//34
f 59//22 60//22 84//22
f 23//17 85//17 86//17
f 5//35 94//35 82//35
f 53//17 54//17 76//17
f 5//24 3//24 93//24
f 21//36 96//36 84//36
f 54//37 13//37 88//37
f 19//25 95//25 96//25
f 11//7 87//7 88//7
f 53//38 75//38 87//38
f 3//39 55//39 81//39
f 56//24 57//24 78//24
