# Blender v2.78 (sub 0) OBJ File: 'mediumCarTire.blend'
# www.blender.org
mtllib mediumCarTire.mtl
o Cube
v 0.122296 0.063119 -0.310746
v -0.129197 0.060339 -0.417030
v 0.121087 0.210785 -0.263361
v -0.130908 0.269235 -0.349997
v 0.124084 0.315069 -0.148625
v -0.126669 0.416760 -0.187687
v 0.130483 0.348027 0.002718
v -0.117615 0.463384 0.026411
v 0.138571 0.300828 0.150116
v -0.106174 0.396615 0.234928
v 0.146180 0.186120 0.254074
v -0.095410 0.234343 0.381993
v 0.151271 0.034638 0.286738
v -0.088208 0.020049 0.428199
v 0.152480 -0.113028 0.239353
v -0.086497 -0.188847 0.361166
v 0.149484 -0.217312 0.124617
v -0.090737 -0.336372 0.198856
v 0.143084 -0.250271 -0.026725
v -0.099790 -0.382996 -0.015241
v 0.134996 -0.203072 -0.174124
v -0.111231 -0.316227 -0.223758
v 0.127387 -0.088364 -0.278082
v -0.121995 -0.153955 -0.370823
v 0.123491 -0.145271 -0.388412
v 0.116289 0.069023 -0.434618
v 0.118817 0.425444 -0.205275
v 0.127871 0.472068 0.008822
v 0.150076 0.243027 0.364404
v 0.157278 0.028733 0.410611
v 0.114578 0.277919 -0.367586
v 0.158989 -0.180163 0.343578
v 0.154750 -0.327688 0.181267
v 0.139312 0.405299 0.217339
v 0.145696 -0.374312 -0.032830
v 0.134255 -0.307543 -0.241347
v 0.091958 0.056809 -0.266935
v 0.090920 0.183616 -0.226244
v 0.093493 0.273169 -0.127716
v 0.098989 0.301471 0.002249
v 0.105934 0.260940 0.128826
v 0.112468 0.162435 0.218099
v 0.116840 0.032352 0.246148
v 0.117879 -0.094455 0.205457
v 0.115305 -0.184008 0.106929
v 0.109810 -0.212310 -0.023036
v 0.102865 -0.171779 -0.149613
v 0.096330 -0.073275 -0.238886
v 0.108379 0.041913 -0.143893
v 0.107824 0.109604 -0.122171
v 0.109198 0.157409 -0.069575
v 0.112132 0.172517 -0.000199
v 0.115839 0.150881 0.067369
v 0.119327 0.098298 0.115024
v 0.121661 0.028857 0.129998
v 0.122215 -0.038834 0.108276
v 0.120842 -0.086638 0.055681
v 0.117908 -0.101746 -0.013696
v 0.114201 -0.080110 -0.081265
v 0.110713 -0.027527 -0.128920
v 0.094556 -0.034676 -0.138617
v 0.092023 0.040669 -0.154863
v 0.092912 0.165985 -0.074226
v 0.096096 0.182378 0.001049
v 0.103903 0.101848 0.126070
v 0.106435 0.026504 0.142316
v 0.091422 0.114116 -0.131294
v 0.107037 -0.046943 0.118748
v 0.105546 -0.098812 0.061680
v 0.100118 0.158902 0.074362
v 0.102363 -0.115205 -0.013596
v 0.098340 -0.091730 -0.086909
vn -0.0624 -0.2124 -0.9752
vn -0.9986 -0.0234 0.0473
vn -0.0118 0.9521 0.3055
vn 0.0741 -0.7389 0.6697
vn -0.0788 0.3040 -0.9494
vn 0.0292 0.6723 0.7397
vn 0.8247 -0.5588 0.0868
vn 0.0496 -0.9763 0.2105
vn -0.0741 0.7389 -0.6697
vn 0.0624 0.2124 0.9752
vn 0.0118 -0.9521 -0.3055
vn -0.0496 0.9763 -0.2105
vn 0.0788 -0.3040 0.9494
vn -0.0292 -0.6723 -0.7397
vn 0.9986 0.0234 -0.0473
vn 0.9963 -0.0112 -0.0853
vn 0.8294 -0.4240 0.3637
vn 0.7285 0.4974 -0.4711
vn 0.7609 -0.1122 -0.6391
vn 0.7496 0.6412 0.1642
vn 0.8092 -0.5452 -0.2190
vn 0.8216 -0.1681 0.5447
vn 0.7758 0.4512 0.4410
vn 0.8023 0.1515 0.5774
vn 0.7320 0.6586 -0.1744
vn 0.7395 0.2112 -0.6392
vn 0.7862 -0.3855 -0.4829
vn 0.9990 -0.0239 -0.0370
vn 0.9998 -0.0127 -0.0146
vn 0.9939 0.0675 -0.0873
vn 0.9949 0.0118 -0.1004
vn 0.9964 0.0793 -0.0293
vn 0.9978 -0.0236 -0.0623
vn 1.0000 0.0080 0.0006
vn 0.9981 0.0610 -0.0058
vn 0.9994 0.0345 0.0044
vn 0.9948 0.0821 -0.0600
vn 0.9940 0.0408 -0.1019
vn 0.5583 -0.1569 -0.8146
vn 0.5012 0.8409 -0.2043
vn 0.6001 0.1878 0.7776
vn 0.5233 0.2643 -0.8101
vn 0.6332 -0.2318 0.7384
vn 0.6506 -0.5703 0.5014
vn 0.5224 0.8200 0.2339
vn 0.6490 -0.7486 0.1356
vn 0.5018 0.6335 -0.5889
vn 0.6296 -0.7292 -0.2680
vn 0.5970 -0.5167 -0.6138
vn 0.5592 0.5768 0.5955
vn 0.9948 0.0821 -0.0599
vn 0.5969 -0.5167 -0.6138
usemtl Material
s off
f 2//1 25//1 24//1
f 16//2 14//2 4//2
f 34//3 8//3 10//3
f 18//4 32//4 16//4
f 4//5 26//5 2//5
f 29//6 10//6 12//6
f 5//7 40//7 39//7
f 20//8 33//8 18//8
f 27//9 4//9 6//9
f 30//10 12//10 14//10
f 22//11 35//11 20//11
f 28//12 6//12 8//12
f 32//13 14//13 16//13
f 24//14 36//14 22//14
f 23//15 26//15 1//15
f 7//15 27//15 28//15
f 11//15 30//15 13//15
f 1//15 31//15 3//15
f 13//15 32//15 15//15
f 17//15 32//15 33//15
f 9//15 28//15 34//15
f 19//15 33//15 35//15
f 5//15 31//15 27//15
f 21//15 35//15 36//15
f 21//15 25//15 23//15
f 9//15 29//15 11//15
f 42//16 70//16 41//16
f 3//17 39//17 38//17
f 17//18 44//18 15//18
f 13//19 42//19 11//19
f 19//20 47//20 46//20
f 9//21 40//21 7//21
f 1//22 38//22 37//22
f 21//23 48//23 47//23
f 23//24 37//24 48//24
f 19//25 45//25 17//25
f 15//26 43//26 13//26
f 11//27 41//27 9//27
f 49//15 50//15 56//15
f 40//28 63//28 39//28
f 38//29 63//29 67//29
f 45//30 68//30 44//30
f 43//31 65//31 42//31
f 46//32 72//32 71//32
f 41//33 64//33 40//33
f 37//34 67//34 62//34
f 47//35 61//35 72//35
f 48//36 62//36 61//36
f 45//37 71//37 69//37
f 44//38 66//38 43//38
f 60//39 62//39 49//39
f 51//40 64//40 52//40
f 55//41 65//41 66//41
f 49//42 67//42 50//42
f 56//43 66//43 68//43
f 57//44 68//44 69//44
f 53//45 64//45 70//45
f 58//46 69//46 71//46
f 50//47 63//47 51//47
f 58//48 72//48 59//48
f 59//49 61//49 60//49
f 54//50 70//50 65//50
f 2//1 26//1 25//1
f 10//2 8//2 12//2
f 6//2 4//2 14//2
f 2//2 24//2 18//2
f 22//2 20//2 24//2
f 18//2 16//2 2//2
f 14//2 12//2 6//2
f 8//2 6//2 12//2
f 24//2 20//2 18//2
f 16//2 4//2 2//2
f 34//3 28//3 8//3
f 18//4 33//4 32//4
f 4//5 31//5 26//5
f 29//6 34//6 10//6
f 5//7 7//7 40//7
f 20//8 35//8 33//8
f 27//9 31//9 4//9
f 30//10 29//10 12//10
f 22//11 36//11 35//11
f 28//12 27//12 6//12
f 32//13 30//13 14//13
f 24//14 25//14 36//14
f 23//15 25//15 26//15
f 7//15 5//15 27//15
f 11//15 29//15 30//15
f 1//15 26//15 31//15
f 13//15 30//15 32//15
f 17//15 15//15 32//15
f 9//15 7//15 28//15
f 19//15 17//15 33//15
f 5//15 3//15 31//15
f 21//15 19//15 35//15
f 21//15 36//15 25//15
f 9//15 34//15 29//15
f 42//16 65//16 70//16
f 3//17 5//17 39//17
f 17//18 45//18 44//18
f 13//19 43//19 42//19
f 19//20 21//20 47//20
f 9//21 41//21 40//21
f 1//22 3//22 38//22
f 21//23 23//23 48//23
f 23//24 1//24 37//24
f 19//25 46//25 45//25
f 15//26 44//26 43//26
f 11//27 42//27 41//27
f 54//15 55//15 51//15
f 56//15 57//15 49//15
f 58//15 59//15 60//15
f 60//15 57//15 58//15
f 50//15 51//15 55//15
f 52//15 53//15 54//15
f 55//15 56//15 50//15
f 60//15 49//15 57//15
f 51//15 52//15 54//15
f 40//28 64//28 63//28
f 38//29 39//29 63//29
f 45//30 69//30 68//30
f 43//31 66//31 65//31
f 46//32 47//32 72//32
f 41//33 70//33 64//33
f 37//34 38//34 67//34
f 47//35 48//35 61//35
f 48//36 37//36 62//36
f 45//51 46//51 71//51
f 44//38 68//38 66//38
f 60//39 61//39 62//39
f 51//40 63//40 64//40
f 55//41 54//41 65//41
f 49//42 62//42 67//42
f 56//43 55//43 66//43
f 57//44 56//44 68//44
f 53//45 52//45 64//45
f 58//46 57//46 69//46
f 50//47 67//47 63//47
f 58//48 71//48 72//48
f 59//52 72//52 61//52
f 54//50 53//50 70//50
