# This file uses centimeters as units for non-parametric coordinates.

mtllib armourPack.mtl
g default
v -0.473666 -0.387567 0.000000
v -0.004657 -0.639882 0.000000
v 0.444649 -0.413646 0.000000
v -0.669678 0.090056 0.000000
v 0.000000 0.000000 0.000000
v 0.612647 0.082377 0.000000
v -0.718124 0.830043 0.000000
v -0.015435 0.489523 0.000000
v 0.692512 0.812080 0.000000
v -0.473666 -0.387567 0.130704
v -0.004657 -0.639882 0.130704
v 0.000000 0.000000 0.130704
v -0.669678 0.090056 0.130704
v 0.444649 -0.413646 0.130704
v 0.612647 0.082377 0.130704
v -0.015435 0.489523 0.130704
v -0.718124 0.830043 0.130704
v 0.692512 0.812080 0.130704
v -0.609157 -0.509636 0.282007
v -0.007185 -0.826449 0.276779
v -0.000000 0.000000 0.367667
v -0.840531 0.050519 0.290070
v 0.583421 -0.534246 0.280203
v 0.781539 0.045001 0.292661
v -0.013811 0.626335 0.324176
v -0.828201 0.993573 0.262204
v 0.808096 0.971897 0.262044
v -0.609157 -0.509636 -0.151303
v -0.840531 0.050519 -0.159366
v 0.000000 0.000000 -0.236963
v -0.007185 -0.826449 -0.146075
v 0.781539 0.045001 -0.161957
v 0.583421 -0.534246 -0.149498
v -0.828201 0.993573 -0.131500
v -0.013811 0.626335 -0.193471
v 0.808096 0.971897 -0.131339
vt 0.000000 0.000000
vt 0.500000 0.000000
vt 0.500000 0.500000
vt 0.000000 0.500000
vt 1.000000 0.000000
vt 1.000000 0.500000
vt 0.500000 1.000000
vt 0.000000 1.000000
vt 1.000000 1.000000
vt 0.000000 0.000000
vt 0.000000 0.500000
vt 0.500000 0.500000
vt 0.500000 0.000000
vt 1.000000 0.500000
vt 1.000000 0.000000
vt 0.000000 1.000000
vt 0.500000 1.000000
vt 1.000000 1.000000
vt 0.000000 0.000000
vt 0.500000 0.000000
vt 0.000000 0.500000
vt 1.000000 0.000000
vt 1.000000 0.500000
vt 0.500000 1.000000
vt 0.000000 1.000000
vt 1.000000 1.000000
vt 0.000000 0.000000
vt 0.500000 0.000000
vt 0.500000 0.500000
vt 0.000000 0.500000
vt 1.000000 0.000000
vt 1.000000 0.500000
vt 0.500000 1.000000
vt 0.000000 1.000000
vt 1.000000 1.000000
vt 0.000000 0.000000
vt 0.000000 0.500000
vt 0.500000 0.500000
vt 0.500000 0.000000
vt 1.000000 0.500000
vt 1.000000 0.000000
vt 0.000000 1.000000
vt 0.500000 1.000000
vt 1.000000 1.000000
vt 0.000000 0.000000
vt 0.500000 0.000000
vt 0.000000 0.500000
vt 1.000000 0.000000
vt 1.000000 0.500000
vt 0.500000 1.000000
vt 0.000000 1.000000
vt 1.000000 1.000000
vn 0.000000 0.000000 1.000000
vn 0.000000 0.000000 1.000000
vn 0.000000 0.000000 1.000000
vn 0.000000 0.000000 1.000000
vn 0.000000 0.000000 1.000000
vn 0.000000 0.000000 1.000000
vn 0.000000 0.000000 1.000000
vn 0.000000 0.000000 1.000000
vn 0.000000 0.000000 1.000000
vn 0.000000 0.000000 1.000000
vn 0.000000 0.000000 1.000000
vn 0.000000 0.000000 1.000000
vn 0.000000 0.000000 1.000000
vn 0.000000 0.000000 1.000000
vn 0.000000 0.000000 1.000000
vn 0.000000 0.000000 1.000000
vn 0.000000 0.000000 -1.000000
vn 0.000000 0.000000 -1.000000
vn 0.000000 0.000000 -1.000000
vn 0.000000 0.000000 -1.000000
vn 0.000000 0.000000 -1.000000
vn 0.000000 0.000000 -1.000000
vn 0.000000 0.000000 -1.000000
vn 0.000000 0.000000 -1.000000
vn 0.000000 0.000000 -1.000000
vn 0.000000 0.000000 -1.000000
vn 0.000000 0.000000 -1.000000
vn 0.000000 0.000000 -1.000000
vn 0.000000 0.000000 -1.000000
vn 0.000000 0.000000 -1.000000
vn 0.000000 0.000000 -1.000000
vn 0.000000 0.000000 -1.000000
vn -0.473769 -0.880649 0.000000
vn -0.473769 -0.880649 0.000000
vn -0.473769 -0.880649 0.000000
vn -0.473769 -0.880649 0.000000
vn -0.980436 -0.196840 0.000000
vn -0.925125 -0.379663 0.000000
vn -0.925125 -0.379663 0.000000
vn -0.980436 -0.196840 0.000000
vn 0.449730 -0.893165 0.000000
vn 0.449730 -0.893165 0.000000
vn 0.449730 -0.893165 0.000000
vn 0.449730 -0.893165 0.000000
vn 0.947151 -0.320788 0.000000
vn 0.980161 -0.198205 0.000000
vn 0.980161 -0.198205 0.000000
vn 0.947151 -0.320788 0.000000
vn 0.012733 0.999919 0.000000
vn 0.436089 0.899904 0.000000
vn 0.436089 0.899904 0.000000
vn 0.012733 0.999919 0.000000
vn -0.997864 -0.065328 0.000000
vn -0.980436 -0.196840 0.000000
vn -0.980436 -0.196840 0.000000
vn -0.997864 -0.065328 0.000000
vn 0.980161 -0.198205 0.000000
vn 0.994064 -0.108801 0.000000
vn 0.994064 -0.108801 0.000000
vn 0.980161 -0.198205 0.000000
vn -0.414616 0.909997 0.000000
vn 0.012733 0.999919 0.000000
vn 0.012733 0.999919 0.000000
vn -0.414616 0.909997 0.000000
vn 0.000000 0.000000 -1.000000
vn 0.000000 0.000000 -1.000000
vn 0.000000 0.000000 -1.000000
vn 0.000000 0.000000 -1.000000
vn 0.000000 0.000000 -1.000000
vn 0.000000 0.000000 -1.000000
vn 0.000000 0.000000 -1.000000
vn 0.000000 0.000000 -1.000000
vn 0.000000 0.000000 -1.000000
vn 0.000000 0.000000 -1.000000
vn 0.000000 0.000000 -1.000000
vn 0.000000 0.000000 -1.000000
vn 0.000000 0.000000 -1.000000
vn 0.000000 0.000000 -1.000000
vn 0.000000 0.000000 -1.000000
vn 0.000000 0.000000 -1.000000
vn 0.000000 0.000000 1.000000
vn 0.000000 0.000000 1.000000
vn 0.000000 0.000000 1.000000
vn 0.000000 0.000000 1.000000
vn 0.000000 0.000000 1.000000
vn 0.000000 0.000000 1.000000
vn 0.000000 0.000000 1.000000
vn 0.000000 0.000000 1.000000
vn 0.000000 0.000000 1.000000
vn 0.000000 0.000000 1.000000
vn 0.000000 0.000000 1.000000
vn 0.000000 0.000000 1.000000
vn 0.000000 0.000000 1.000000
vn 0.000000 0.000000 1.000000
vn 0.000000 0.000000 1.000000
vn 0.000000 0.000000 1.000000
vn 0.473769 0.880649 0.000000
vn 0.473769 0.880649 0.000000
vn 0.473769 0.880649 0.000000
vn 0.473769 0.880649 0.000000
vn 0.980436 0.196840 0.000000
vn 0.980436 0.196840 0.000000
vn 0.925125 0.379663 0.000000
vn 0.925125 0.379663 0.000000
vn -0.449730 0.893165 0.000000
vn -0.449730 0.893165 0.000000
vn -0.449730 0.893165 0.000000
vn -0.449730 0.893165 0.000000
vn -0.947151 0.320788 0.000000
vn -0.947151 0.320788 0.000000
vn -0.980161 0.198205 0.000000
vn -0.980161 0.198205 0.000000
vn -0.012733 -0.999919 0.000000
vn -0.012733 -0.999919 0.000000
vn -0.436089 -0.899904 0.000000
vn -0.436089 -0.899904 0.000000
vn 0.997864 0.065328 0.000000
vn 0.997864 0.065328 0.000000
vn 0.980436 0.196840 0.000000
vn 0.980436 0.196840 0.000000
vn -0.980161 0.198205 0.000000
vn -0.980161 0.198205 0.000000
vn -0.994064 0.108801 0.000000
vn -0.994064 0.108801 0.000000
vn 0.414616 -0.909997 0.000000
vn 0.414616 -0.909997 0.000000
vn -0.012733 -0.999919 0.000000
vn -0.012733 -0.999919 0.000000
s off
g pPlane1
usemtl initialShadingGroup
f 19/1/1 20/2/2 21/3/3 22/4/4
f 20/2/5 23/5/6 24/6/7 21/3/8
f 22/4/9 21/3/10 25/7/11 26/8/12
f 21/3/13 24/6/14 27/9/15 25/7/16
f 28/10/17 29/11/18 30/12/19 31/13/20
f 31/13/21 30/12/22 32/14/23 33/15/24
f 29/11/25 34/16/26 35/17/27 30/12/28
f 30/12/29 35/17/30 36/18/31 32/14/32
f 28/19/33 31/20/34 20/2/35 19/1/36
f 29/21/37 28/19/38 19/1/39 22/4/40
f 31/20/41 33/22/42 23/5/43 20/2/44
f 33/22/45 32/23/46 24/6/47 23/5/48
f 35/24/49 34/25/50 26/8/51 25/7/52
f 34/25/53 29/21/54 22/4/55 26/8/56
f 32/23/57 36/26/58 27/9/59 24/6/60
f 36/26/61 35/24/62 25/7/63 27/9/64
f 10/27/65 13/30/66 12/29/67 11/28/68
f 11/28/69 12/29/70 15/32/71 14/31/72
f 13/30/73 17/34/74 16/33/75 12/29/76
f 12/29/77 16/33/78 18/35/79 15/32/80
f 1/36/81 2/39/82 5/38/83 4/37/84
f 2/39/85 3/41/86 6/40/87 5/38/88
f 4/37/89 5/38/90 8/43/91 7/42/92
f 5/38/93 6/40/94 9/44/95 8/43/96
f 1/45/97 10/27/98 11/28/99 2/46/100
f 4/47/101 13/30/102 10/27/103 1/45/104
f 2/46/105 11/28/106 14/31/107 3/48/108
f 3/48/109 14/31/110 15/32/111 6/49/112
f 8/50/113 16/33/114 17/34/115 7/51/116
f 7/51/117 17/34/118 13/30/119 4/47/120
f 6/49/121 15/32/122 18/35/123 9/52/124
f 9/52/125 18/35/126 16/33/127 8/50/128
